<?xml version="1.0" standalone="no"?>
<!DOCTYPE svg PUBLIC "-//W3C//DTD SVG 20010904//EN"
 "http://www.w3.org/TR/2001/REC-SVG-20010904/DTD/svg10.dtd">
<svg version="1.0" xmlns="http://www.w3.org/2000/svg"
 width="512.000000pt" height="512.000000pt" viewBox="0 0 512.000000 512.000000"
 preserveAspectRatio="xMidYMid meet">

<g transform="translate(0.000000,512.000000) scale(0.100000,-0.100000)"
fill="#000000" stroke="none">
<path d="M1346 5112 c-3 -5 1 -9 9 -9 8 0 12 4 9 9 -3 4 -7 8 -9 8 -2 0 -6 -4
-9 -8z"/>
<path d="M1390 5110 c0 -5 5 -10 11 -10 5 0 7 5 4 10 -3 6 -8 10 -11 10 -2 0
-4 -4 -4 -10z"/>
<path d="M3720 5110 c-12 -8 -10 -10 8 -10 13 0 20 4 17 10 -7 12 -6 12 -25 0z"/>
<path d="M1920 5105 c0 -8 29 -12 39 -5 9 5 4 8 -13 8 -14 0 -26 -2 -26 -3z"/>
<path d="M3766 5095 c4 -8 10 -15 16 -15 5 0 7 4 3 9 -3 5 3 12 12 14 11 3 8
5 -9 6 -20 1 -26 -3 -22 -14z"/>
<path d="M1660 5091 c0 -5 7 -12 16 -15 14 -5 15 -4 4 9 -14 17 -20 19 -20 6z"/>
<path d="M2138 5093 c7 -3 16 -2 19 1 4 3 -2 6 -13 5 -11 0 -14 -3 -6 -6z"/>
<path d="M3939 5089 c-11 -7 -11 -9 4 -9 11 0 17 -8 17 -25 0 -17 5 -25 18
-25 13 0 14 2 3 9 -9 6 -10 11 -3 15 13 8 5 33 -12 39 -7 3 -19 1 -27 -4z"/>
<path d="M4025 5090 c3 -5 10 -10 16 -10 5 0 9 5 9 10 0 6 -7 10 -16 10 -8 0
-12 -4 -9 -10z"/>
<path d="M1008 5083 c-10 -2 -18 -9 -18 -14 0 -5 -8 -9 -17 -10 -16 0 -16 -1
1 -8 14 -5 16 -10 8 -15 -7 -4 -12 -11 -12 -17 0 -5 8 -1 18 9 10 9 14 20 9
23 -5 4 -4 10 3 14 7 4 16 2 21 -6 6 -10 8 -7 6 9 0 12 -1 21 -2 21 0 -1 -8
-3 -17 -6z"/>
<path d="M3708 5083 c7 -3 16 -2 19 1 4 3 -2 6 -13 5 -11 0 -14 -3 -6 -6z"/>
<path d="M4075 5080 c3 -5 8 -10 11 -10 2 0 4 5 4 10 0 6 -5 10 -11 10 -5 0
-7 -4 -4 -10z"/>
<path d="M1408 5063 c6 -2 18 -2 25 0 6 3 1 5 -13 5 -14 0 -19 -2 -12 -5z"/>
<path d="M3706 5062 c-8 -14 30 -35 52 -29 12 3 11 5 -5 6 -12 0 -26 8 -31 17
-6 11 -12 13 -16 6z"/>
<path d="M932 5040 c-6 -11 -8 -21 -3 -25 5 -3 13 4 16 16 9 28 2 33 -13 9z"/>
<path d="M4007 5046 c-4 -11 -1 -13 10 -9 11 4 14 2 9 -5 -4 -7 -1 -12 10 -12
16 0 16 1 -1 20 -22 24 -21 24 -28 6z"/>
<path d="M4180 5051 c0 -5 9 -7 20 -4 11 3 20 7 20 9 0 2 -9 4 -20 4 -11 0
-20 -4 -20 -9z"/>
<path d="M1048 5024 c5 -29 8 -30 15 -5 3 11 -1 22 -8 24 -8 4 -10 -3 -7 -19z"/>
<path d="M4120 5040 c0 -6 4 -10 10 -10 5 0 7 -6 4 -14 -3 -8 0 -17 7 -22 8
-4 10 -3 5 4 -4 7 -1 12 9 12 9 0 15 5 13 12 -5 14 -48 31 -48 18z"/>
<path d="M4230 5035 c-10 -12 -9 -15 7 -15 11 0 20 7 20 15 0 8 -4 15 -7 15
-4 0 -13 -7 -20 -15z"/>
<path d="M1260 5036 c0 -2 7 -7 16 -10 8 -3 12 -2 9 4 -6 10 -25 14 -25 6z"/>
<path d="M1438 5033 c7 -3 16 -2 19 1 4 3 -2 6 -13 5 -11 0 -14 -3 -6 -6z"/>
<path d="M3850 5029 c0 -5 5 -7 10 -4 6 3 10 8 10 11 0 2 -4 4 -10 4 -5 0 -10
-5 -10 -11z"/>
<path d="M4065 5030 c7 -11 45 -20 45 -10 0 4 -11 10 -25 12 -13 3 -22 2 -20
-2z"/>
<path d="M4284 5021 c9 -10 29 -18 43 -18 24 0 23 1 -12 18 -21 11 -41 19 -43
19 -3 0 3 -8 12 -19z"/>
<path d="M795 5020 c-19 -8 -19 -9 3 -9 12 -1 22 4 22 9 0 6 -1 10 -2 9 -2 0
-12 -4 -23 -9z"/>
<path d="M836 5014 c-5 -14 -4 -15 8 -5 7 6 22 8 31 4 13 -4 16 -3 11 5 -11
18 -43 15 -50 -4z"/>
<path d="M3887 5019 c7 -7 15 -10 18 -7 3 3 -2 9 -12 12 -14 6 -15 5 -6 -5z"/>
<path d="M998 4998 c5 -5 16 -8 23 -6 8 3 3 7 -10 11 -17 4 -21 3 -13 -5z"/>
<path d="M1095 5000 c-3 -5 -3 -11 2 -11 4 -1 -10 -5 -32 -9 l-40 -8 39 2 c29
1 40 6 42 19 3 19 -2 22 -11 7z"/>
<path d="M1365 5000 c3 -5 10 -10 16 -10 5 0 9 5 9 10 0 6 -7 10 -16 10 -8 0
-12 -4 -9 -10z"/>
<path d="M3607 4999 c7 -7 15 -10 18 -7 3 3 -2 9 -12 12 -14 6 -15 5 -6 -5z"/>
<path d="M740 4990 c0 -5 4 -10 9 -10 6 0 13 5 16 10 3 6 -1 10 -9 10 -9 0
-16 -4 -16 -10z"/>
<path d="M881 4991 c-1 -9 -9 -12 -27 -8 -14 2 -22 1 -17 -3 4 -4 24 -10 43
-14 19 -3 30 -3 24 2 -6 4 -14 14 -17 22 -4 11 -6 12 -6 1z"/>
<path d="M3430 4990 c0 -5 5 -10 11 -10 5 0 7 5 4 10 -3 6 -8 10 -11 10 -2 0
-4 -4 -4 -10z"/>
<path d="M3848 4983 c6 -2 18 -2 25 0 6 3 1 5 -13 5 -14 0 -19 -2 -12 -5z"/>
<path d="M4021 4981 c-7 -5 -10 -14 -7 -20 11 -17 22 -13 23 9 2 23 2 23 -16
11z"/>
<path d="M4150 4980 c-13 -8 -13 -10 2 -10 9 0 20 5 23 10 8 13 -5 13 -25 0z"/>
<path d="M4225 4979 c-19 -7 -19 -8 3 -8 33 -1 36 -3 50 -20 11 -14 14 -14 30
5 14 16 26 20 46 17 17 -4 25 -10 22 -18 -2 -7 4 -15 15 -18 10 -3 19 -1 19 4
0 5 -5 9 -11 9 -5 0 -8 4 -4 9 7 13 -61 34 -77 24 -16 -9 -39 -10 -58 -2 -8 4
-24 3 -35 -2z"/>
<path d="M763 4959 c1 -6 -4 -14 -10 -16 -7 -3 -13 0 -13 6 0 6 -7 11 -16 11
-8 0 -12 -4 -9 -10 3 -5 -1 -10 -10 -10 -9 0 -14 -4 -11 -9 3 -5 16 -7 29 -4
35 8 67 25 61 35 -8 12 -24 10 -21 -3z"/>
<path d="M920 4939 c0 -20 6 -28 25 -31 13 -3 23 -1 22 5 -1 6 7 12 18 14 16
3 17 2 5 -6 -12 -9 -11 -11 9 -11 20 0 21 2 11 15 -14 17 -50 20 -50 5 0 -5
-7 -10 -16 -10 -8 0 -13 4 -10 8 2 4 1 14 -5 22 -6 11 -9 9 -9 -11z"/>
<path d="M3738 4953 c7 -3 16 -2 19 1 4 3 -2 6 -13 5 -11 0 -14 -3 -6 -6z"/>
<path d="M4140 4950 c0 -5 7 -7 15 -4 8 4 15 8 15 10 0 2 -7 4 -15 4 -8 0 -15
-4 -15 -10z"/>
<path d="M635 4940 c-3 -5 1 -10 10 -10 9 0 13 5 10 10 -3 6 -8 10 -10 10 -2
0 -7 -4 -10 -10z"/>
<path d="M850 4940 c0 -5 7 -7 15 -4 8 4 15 8 15 10 0 2 -7 4 -15 4 -8 0 -15
-4 -15 -10z"/>
<path d="M3848 4943 c7 -3 16 -2 19 1 4 3 -2 6 -13 5 -11 0 -14 -3 -6 -6z"/>
<path d="M4000 4940 c0 -5 5 -10 10 -10 6 0 10 5 10 10 0 6 -4 10 -10 10 -5 0
-10 -4 -10 -10z"/>
<path d="M810 4930 c-12 -7 -11 -10 5 -16 11 -4 24 -9 28 -12 5 -2 4 5 -2 17
-13 24 -12 23 -31 11z"/>
<path d="M1170 4936 c0 -2 7 -7 16 -10 8 -3 12 -2 9 4 -6 10 -25 14 -25 6z"/>
<path d="M4222 4920 c14 -22 24 -19 15 5 -4 8 -11 15 -17 15 -6 0 -6 -7 2 -20z"/>
<path d="M4420 4936 c0 -2 7 -9 15 -16 9 -7 15 -8 15 -2 0 5 -7 12 -15 16 -8
3 -15 4 -15 2z"/>
<path d="M4296 4915 c4 -8 8 -15 10 -15 2 0 4 7 4 15 0 8 -4 15 -10 15 -5 0
-7 -7 -4 -15z"/>
<path d="M4456 4908 c-35 -18 -41 -18 -51 -5 -7 10 -16 12 -24 7 -10 -6 -7
-10 10 -16 l24 -8 -25 -7 c-22 -6 -21 -7 10 -8 19 -1 54 -1 78 -1 23 0 42 -5
42 -11 0 -6 -4 -7 -10 -4 -5 3 -10 2 -10 -3 0 -6 11 -13 25 -16 27 -7 35 -26
11 -26 -8 0 -18 -4 -21 -10 -4 -6 2 -7 17 -1 13 4 24 18 26 30 2 11 8 21 13
21 15 0 10 27 -6 34 -9 3 -15 0 -15 -9 0 -8 -5 -15 -11 -15 -6 0 -9 6 -6 14 4
11 -27 59 -36 55 -1 -1 -20 -10 -41 -21z m44 -18 c0 -5 -7 -6 -17 -3 -10 4
-14 2 -10 -4 5 -7 -1 -9 -15 -5 -21 5 -21 6 -2 13 27 11 44 11 44 -1z m25 0
c3 -5 1 -10 -4 -10 -6 0 -11 5 -11 10 0 6 2 10 4 10 3 0 8 -4 11 -10z"/>
<path d="M586 4911 c-3 -4 4 -15 16 -25 17 -15 18 -20 7 -27 -7 -4 -10 -11 -7
-15 4 -3 14 1 23 10 9 9 12 16 6 16 -6 0 -11 5 -11 11 0 6 6 9 13 6 8 -3 14 1
14 9 0 8 -5 14 -11 15 -6 0 -19 2 -28 4 -10 2 -20 0 -22 -4z"/>
<path d="M693 4913 c-14 -3 -20 -9 -16 -19 4 -12 8 -12 20 -2 11 9 16 9 23 -3
7 -10 9 -8 7 9 0 12 -4 21 -7 21 -3 -1 -15 -4 -27 -6z"/>
<path d="M751 4911 c-7 -5 -9 -11 -4 -14 6 -4 19 0 29 8 15 11 16 14 4 15 -8
0 -21 -4 -29 -9z"/>
<path d="M885 4910 c-3 -5 -1 -10 4 -10 6 0 11 5 11 10 0 6 -2 10 -4 10 -3 0
-8 -4 -11 -10z"/>
<path d="M1060 4916 c0 -2 7 -6 15 -10 8 -3 15 -1 15 4 0 6 -7 10 -15 10 -8 0
-15 -2 -15 -4z"/>
<path d="M1041 4894 c0 -11 3 -14 6 -6 3 7 2 16 -1 19 -3 4 -6 -2 -5 -13z"/>
<path d="M4098 4903 c6 -3 9 -9 6 -15 -4 -5 4 -5 16 2 16 9 24 9 29 1 5 -8 12
-7 24 2 15 10 9 12 -35 13 -29 0 -47 -1 -40 -3z"/>
<path d="M554 4889 c-3 -6 -1 -15 6 -19 10 -6 9 -9 -1 -13 -9 -3 -6 -6 7 -6
12 -1 21 5 21 14 0 8 -7 15 -14 15 -8 0 -11 5 -8 10 3 6 4 10 1 10 -3 0 -8 -5
-12 -11z"/>
<path d="M946 4887 c3 -10 9 -15 12 -12 3 3 0 11 -7 18 -10 9 -11 8 -5 -6z"/>
<path d="M4259 4898 c-9 -17 -2 -58 9 -58 7 0 11 4 8 9 -4 5 0 12 6 14 8 3 6
6 -4 6 -11 1 -15 6 -12 16 5 12 -2 23 -7 13z"/>
<path d="M987 4883 c-4 -3 -7 -11 -7 -17 0 -6 5 -5 12 2 6 6 9 14 7 17 -3 3
-9 2 -12 -2z"/>
<path d="M1105 4880 c3 -5 11 -10 16 -10 6 0 7 5 4 10 -3 6 -11 10 -16 10 -6
0 -7 -4 -4 -10z"/>
<path d="M1268 4863 c7 -3 16 -2 19 1 4 3 -2 6 -13 5 -11 0 -14 -3 -6 -6z"/>
<path d="M4133 4856 c8 -19 -7 -19 -58 -2 -11 4 -7 0 8 -9 15 -9 40 -15 55
-13 27 3 27 3 8 22 -18 18 -19 18 -13 2z"/>
<path d="M4582 4846 c-8 -19 -7 -26 9 -39 16 -14 19 -15 19 -2 0 8 7 15 15 15
8 0 15 -4 15 -10 0 -5 7 -10 16 -10 14 0 14 3 4 15 -7 8 -19 15 -27 15 -8 0
-11 5 -7 12 5 8 2 9 -10 5 -9 -4 -14 -3 -11 2 3 5 1 12 -3 15 -5 3 -14 -5 -20
-18z"/>
<path d="M668 4853 c6 -2 18 -2 25 0 6 3 1 5 -13 5 -14 0 -19 -2 -12 -5z"/>
<path d="M4000 4850 c0 -5 5 -10 11 -10 5 0 7 5 4 10 -3 6 -8 10 -11 10 -2 0
-4 -4 -4 -10z"/>
<path d="M4380 4844 c0 -8 5 -12 10 -9 6 3 10 10 10 16 0 5 -4 9 -10 9 -5 0
-10 -7 -10 -16z"/>
<path d="M905 4840 c11 -5 27 -9 35 -9 9 0 8 4 -5 9 -11 5 -27 9 -35 9 -9 0
-8 -4 5 -9z"/>
<path d="M473 4828 c-2 -5 5 -8 16 -8 10 0 21 -6 24 -12 3 -10 7 -10 20 1 10
7 17 19 17 25 0 6 -5 3 -11 -7 -6 -9 -15 -15 -21 -11 -7 4 -6 9 2 14 8 5 2 7
-14 7 -16 -1 -30 -5 -33 -9z"/>
<path d="M4299 4823 c-13 -16 -12 -17 4 -4 16 13 21 21 13 21 -2 0 -10 -8 -17
-17z"/>
<path d="M726 4821 c-6 -9 0 -51 9 -59 12 -12 16 8 5 27 -6 12 -8 26 -5 31 3
6 4 10 1 10 -3 0 -7 -4 -10 -9z"/>
<path d="M4220 4814 c0 -8 5 -12 10 -9 6 3 10 10 10 16 0 5 -4 9 -10 9 -5 0
-10 -7 -10 -16z"/>
<path d="M4367 4809 c4 -13 8 -18 11 -10 2 7 -1 18 -6 23 -8 8 -9 4 -5 -13z"/>
<path d="M4466 4814 c-6 -15 3 -18 28 -8 22 8 20 19 -3 21 -11 1 -22 -5 -25
-13z"/>
<path d="M560 4804 c0 -8 5 -12 10 -9 6 4 8 11 5 16 -9 14 -15 11 -15 -7z"/>
<path d="M4250 4809 c0 -5 5 -7 10 -4 6 3 10 8 10 11 0 2 -4 4 -10 4 -5 0 -10
-5 -10 -11z"/>
<path d="M640 4794 c0 -8 5 -12 10 -9 6 3 10 1 10 -5 0 -6 5 -8 10 -5 8 5 7
11 -1 21 -15 19 -29 18 -29 -2z"/>
<path d="M690 4800 c0 -5 5 -10 11 -10 5 0 7 5 4 10 -3 6 -8 10 -11 10 -2 0
-4 -4 -4 -10z"/>
<path d="M450 4774 c5 -13 6 -24 2 -24 -4 0 2 -6 12 -12 15 -9 22 -7 32 6 9
13 13 14 17 4 3 -7 6 -2 6 12 l0 25 -18 -22 c-18 -22 -19 -22 -24 -3 -3 11 0
20 6 20 16 0 2 10 -21 15 -19 3 -20 1 -12 -21z"/>
<path d="M766 4791 c-3 -5 1 -14 8 -20 12 -10 13 -8 9 8 -6 23 -9 25 -17 12z"/>
<path d="M4572 4782 c3 -11 1 -23 -5 -25 -8 -2 -8 -5 0 -10 20 -13 33 26 15
42 -14 13 -15 13 -10 -7z"/>
<path d="M536 4782 c-13 -13 -4 -22 19 -20 14 1 25 5 25 9 0 9 -37 18 -44 11z"/>
<path d="M870 4780 c0 -5 5 -10 10 -10 6 0 10 5 10 10 0 6 -4 10 -10 10 -5 0
-10 -4 -10 -10z"/>
<path d="M4390 4780 c0 -5 5 -10 11 -10 5 0 7 5 4 10 -3 6 -8 10 -11 10 -2 0
-4 -4 -4 -10z"/>
<path d="M4616 4774 c-9 -8 -13 -20 -10 -25 7 -12 7 -11 23 19 14 26 9 28 -13
6z"/>
<path d="M4680 4770 c-6 -11 -15 -20 -21 -20 -6 0 -7 6 -3 13 5 9 4 9 -6 0
-10 -9 -7 -17 13 -37 27 -27 59 -38 38 -13 -13 17 -5 28 15 20 11 -4 13 -15 8
-41 -5 -25 -4 -33 5 -28 6 4 11 2 11 -4 0 -6 4 -9 10 -5 6 4 6 15 -1 32 -5 14
-7 28 -5 30 8 8 27 -8 21 -18 -4 -5 -1 -9 5 -9 20 0 5 23 -26 41 -16 10 -39
15 -53 12 -23 -6 -23 -5 -6 21 10 14 15 26 12 26 -4 0 -11 -9 -17 -20z"/>
<path d="M830 4770 c0 -5 5 -10 11 -10 5 0 7 5 4 10 -3 6 -8 10 -11 10 -2 0
-4 -4 -4 -10z"/>
<path d="M4237 4763 c3 -7 8 -13 12 -13 4 0 15 6 24 13 15 11 14 12 -12 12
-19 0 -27 -4 -24 -12z"/>
<path d="M4360 4776 c0 -2 8 -10 18 -17 15 -13 16 -12 3 4 -13 16 -21 21 -21
13z"/>
<path d="M389 4754 c-14 -17 -23 -54 -13 -54 4 0 14 8 23 18 9 11 22 21 29 23
8 3 6 8 -7 16 -16 10 -22 9 -32 -3z"/>
<path d="M687 4734 c3 -9 -2 -14 -13 -14 -15 0 -16 -2 -5 -9 9 -6 21 -5 33 2
23 15 23 23 -1 30 -14 3 -18 1 -14 -9z"/>
<path d="M1110 4740 c0 -5 5 -10 11 -10 5 0 7 5 4 10 -3 6 -8 10 -11 10 -2 0
-4 -4 -4 -10z"/>
<path d="M4390 4738 c-12 -8 -11 -9 4 -4 13 5 17 2 13 -9 -4 -8 -2 -17 3 -20
6 -4 10 3 10 14 0 25 -12 33 -30 19z"/>
<path d="M743 4725 c0 -8 4 -15 9 -15 4 0 8 4 8 9 0 6 -4 12 -8 15 -5 3 -9 -1
-9 -9z"/>
<path d="M4514 4726 c11 -9 24 -16 30 -16 12 0 7 5 -24 19 -24 11 -24 11 -6
-3z"/>
<path d="M4581 4731 c-8 -6 -9 -11 -3 -15 6 -3 14 -1 17 5 9 14 2 20 -14 10z"/>
<path d="M446 4715 c-3 -9 2 -12 16 -10 29 6 32 12 9 18 -11 3 -22 -1 -25 -8z"/>
<path d="M516 4723 c-10 -10 -7 -33 5 -33 5 0 8 4 5 9 -4 5 -1 11 6 13 8 3 9
6 1 11 -5 4 -13 4 -17 0z"/>
<path d="M4630 4720 c0 -5 5 -10 11 -10 5 0 7 5 4 10 -3 6 -8 10 -11 10 -2 0
-4 -4 -4 -10z"/>
<path d="M340 4705 c-10 -12 -10 -15 2 -15 8 0 15 7 15 15 0 8 -1 15 -2 15 -2
0 -8 -7 -15 -15z"/>
<path d="M775 4709 c-4 -6 -5 -12 -2 -15 2 -3 7 2 10 11 7 17 1 20 -8 4z"/>
<path d="M715 4689 c-4 -6 -5 -12 -2 -15 2 -3 7 2 10 11 7 17 1 20 -8 4z"/>
<path d="M4432 4693 c-13 -5 -7 -23 9 -23 6 0 8 4 5 9 -4 5 0 12 6 14 7 3 9 5
3 5 -5 0 -16 -2 -23 -5z"/>
<path d="M4506 4691 c-3 -5 2 -15 12 -22 15 -12 16 -12 5 2 -7 9 -10 19 -6 22
3 4 4 7 0 7 -3 0 -8 -4 -11 -9z"/>
<path d="M575 4681 c-6 -5 -19 -11 -30 -14 -19 -4 -19 -5 1 -6 12 0 27 6 34
14 14 16 10 20 -5 6z"/>
<path d="M4613 4678 c4 -10 2 -18 -3 -18 -6 0 -10 -4 -10 -10 0 -5 7 -7 15 -4
9 4 15 0 15 -9 0 -9 4 -18 9 -21 17 -11 4 45 -14 62 -17 16 -17 16 -12 0z"/>
<path d="M4640 4680 c0 -5 5 -10 10 -10 6 0 10 5 10 10 0 6 -4 10 -10 10 -5 0
-10 -4 -10 -10z"/>
<path d="M4674 4666 c0 -15 8 -27 19 -30 21 -5 22 7 2 24 -13 11 -13 15 -3 21
10 7 9 9 -3 9 -12 0 -16 -8 -15 -24z"/>
<path d="M328 4673 c7 -3 16 -2 19 1 4 3 -2 6 -13 5 -11 0 -14 -3 -6 -6z"/>
<path d="M366 4672 c-3 -4 4 -9 15 -9 23 -2 25 3 4 10 -8 4 -16 3 -19 -1z"/>
<path d="M634 4669 c-3 -5 0 -8 8 -7 7 2 12 -3 11 -9 -4 -19 5 -16 16 5 7 14
6 18 -10 19 -10 1 -21 -3 -25 -8z"/>
<path d="M4577 4659 c4 -13 8 -18 11 -10 2 7 -1 18 -6 23 -8 8 -9 4 -5 -13z"/>
<path d="M4771 4650 c-13 -11 -29 -20 -37 -20 -8 0 -14 -4 -14 -10 0 -10 27
-3 47 12 8 7 11 4 10 -10 0 -12 -6 -18 -14 -15 -8 3 -11 0 -8 -9 3 -8 16 -14
28 -14 12 1 22 -4 22 -11 0 -23 11 -21 13 2 1 14 -3 25 -9 25 -6 0 -9 7 -5 15
3 8 0 15 -5 15 -6 0 -9 9 -6 20 3 11 4 20 4 20 -1 -1 -13 -10 -26 -20z"/>
<path d="M306 4652 c-3 -3 -6 -12 -5 -21 0 -12 3 -11 9 4 7 17 9 16 10 -10 1
-16 4 -24 7 -17 2 6 9 10 14 6 5 -3 9 0 9 5 0 6 -6 11 -12 11 -10 0 -10 2 0 9
11 6 9 9 -7 14 -11 2 -22 2 -25 -1z"/>
<path d="M360 4647 c0 -2 13 -15 28 -29 l28 -25 11 24 c10 21 10 23 -3 13 -11
-10 -19 -9 -39 4 -14 9 -25 15 -25 13z"/>
<path d="M755 4640 c-3 -5 -1 -10 4 -10 6 0 11 5 11 10 0 6 -2 10 -4 10 -3 0
-8 -4 -11 -10z"/>
<path d="M4424 4642 c-9 -5 -8 -11 2 -20 12 -11 14 -9 14 8 0 22 0 23 -16 12z"/>
<path d="M4538 4643 c7 -3 16 -2 19 1 4 3 -2 6 -13 5 -11 0 -14 -3 -6 -6z"/>
<path d="M4800 4646 c0 -2 9 -6 20 -9 11 -3 18 -1 14 4 -5 9 -34 13 -34 5z"/>
<path d="M4562 4610 c0 -14 2 -19 5 -12 2 6 2 18 0 25 -3 6 -5 1 -5 -13z"/>
<path d="M700 4611 c0 -8 -7 -10 -21 -6 -20 7 -20 6 -2 -12 18 -18 18 -18 26
1 4 10 5 21 2 24 -3 3 -5 0 -5 -7z"/>
<path d="M740 4609 c0 -5 5 -7 10 -4 6 3 10 8 10 11 0 2 -4 4 -10 4 -5 0 -10
-5 -10 -11z"/>
<path d="M4580 4606 c0 -9 7 -16 16 -16 9 0 14 5 12 12 -6 18 -28 21 -28 4z"/>
<path d="M4835 4598 c-3 -13 -1 -36 5 -53 10 -29 10 -29 6 -2 -2 15 2 27 8 27
7 0 6 3 -2 8 -7 5 -10 16 -6 25 3 9 3 17 0 17 -3 0 -8 -10 -11 -22z"/>
<path d="M571 4594 c-7 -8 -11 -17 -9 -20 3 -2 13 5 23 16 10 11 14 20 9 20
-5 -1 -15 -8 -23 -16z"/>
<path d="M4515 4600 c3 -5 8 -10 11 -10 2 0 4 5 4 10 0 6 -5 10 -11 10 -5 0
-7 -4 -4 -10z"/>
<path d="M250 4588 c0 -4 12 -8 26 -8 16 0 24 -5 21 -12 -2 -7 -9 -12 -14 -11
-6 1 -8 -8 -6 -21 3 -12 11 -23 20 -23 10 0 13 7 8 25 -5 22 -4 24 20 18 14
-4 25 -2 25 4 0 5 -9 10 -20 10 -11 0 -20 4 -20 9 0 5 -13 11 -30 13 -16 3
-30 1 -30 -4z"/>
<path d="M345 4590 c-3 -5 -1 -10 4 -10 6 0 11 5 11 10 0 6 -2 10 -4 10 -3 0
-8 -4 -11 -10z"/>
<path d="M455 4590 c3 -5 8 -10 11 -10 2 0 4 5 4 10 0 6 -5 10 -11 10 -5 0 -7
-4 -4 -10z"/>
<path d="M4445 4590 c4 -6 11 -8 16 -5 14 9 11 15 -7 15 -8 0 -12 -5 -9 -10z"/>
<path d="M4674 4592 c3 -5 0 -13 -6 -15 -9 -4 -10 -6 -1 -6 17 -1 25 16 12 25
-7 4 -9 3 -5 -4z"/>
<path d="M373 4576 c3 -8 2 -17 -4 -20 -5 -2 -4 -3 3 -2 17 3 23 36 8 36 -7 0
-10 -6 -7 -14z"/>
<path d="M4495 4580 c-3 -5 -1 -10 4 -10 6 0 11 5 11 10 0 6 -2 10 -4 10 -3 0
-8 -4 -11 -10z"/>
<path d="M425 4570 c-4 -6 3 -10 14 -10 25 0 27 6 6 13 -8 4 -17 2 -20 -3z"/>
<path d="M4727 4573 c-3 -5 -2 -15 2 -22 5 -7 11 -9 14 -4 3 5 2 15 -2 22 -5
7 -11 9 -14 4z"/>
<path d="M527 4563 c-3 -5 -2 -15 2 -22 5 -7 11 -9 14 -4 3 5 2 15 -2 22 -5 7
-11 9 -14 4z"/>
<path d="M220 4546 c0 -8 4 -17 8 -20 4 -2 8 4 8 15 0 10 -4 19 -8 19 -4 0 -8
-6 -8 -14z"/>
<path d="M4433 4545 c0 -8 4 -12 9 -9 5 3 6 10 3 15 -9 13 -12 11 -12 -6z"/>
<path d="M4543 4546 c-14 -6 -23 -19 -22 -31 1 -15 2 -16 6 -3 2 9 18 23 36
32 18 8 25 15 17 15 -8 -1 -25 -6 -37 -13z"/>
<path d="M4759 4551 c0 -3 -3 -18 -5 -33 -3 -20 0 -28 10 -28 8 0 18 5 22 11
4 8 13 4 25 -12 14 -18 19 -20 19 -8 0 9 -7 20 -16 23 -14 5 -14 9 -3 24 13
16 12 16 -7 -1 -24 -20 -38 -13 -24 13 6 12 5 17 -6 17 -7 0 -14 -3 -15 -6z"/>
<path d="M4600 4540 c0 -5 4 -10 9 -10 6 0 13 5 16 10 3 6 -1 10 -9 10 -9 0
-16 -4 -16 -10z"/>
<path d="M4697 4539 c6 -6 9 -18 6 -25 -3 -8 0 -14 6 -14 18 0 13 37 -6 45
-14 5 -15 3 -6 -6z"/>
<path d="M4860 4541 c0 -5 5 -13 10 -16 6 -3 10 -2 10 4 0 5 -4 13 -10 16 -5
3 -10 2 -10 -4z"/>
<path d="M254 4521 c0 -11 4 -17 8 -15 4 3 8 12 8 20 0 8 -4 14 -8 14 -4 0 -8
-9 -8 -19z"/>
<path d="M320 4515 c0 -14 2 -25 4 -25 2 0 6 11 8 25 3 14 1 25 -3 25 -5 0 -9
-11 -9 -25z"/>
<path d="M355 4511 c0 -10 9 -29 18 -42 16 -24 16 -24 7 10 -11 40 -27 61 -25
32z"/>
<path d="M4474 4519 c-3 -6 -2 -15 3 -20 5 -5 9 -1 9 11 0 23 -2 24 -12 9z"/>
<path d="M4895 4510 c3 -5 8 -10 11 -10 2 0 4 5 4 10 0 6 -5 10 -11 10 -5 0
-7 -4 -4 -10z"/>
<path d="M601 4494 c0 -11 3 -14 6 -6 3 7 2 16 -1 19 -3 4 -6 -2 -5 -13z"/>
<path d="M465 4489 c-4 -6 -5 -12 -2 -15 2 -3 7 2 10 11 7 17 1 20 -8 4z"/>
<path d="M176 4481 c-3 -5 0 -11 7 -14 8 -3 14 1 14 9 0 16 -13 19 -21 5z"/>
<path d="M222 4478 c-15 -15 -16 -28 -2 -28 6 0 10 7 10 16 0 8 5 12 11 9 7
-5 5 -12 -5 -23 -19 -22 -21 -33 -4 -43 13 -8 14 -12 17 -46 1 -14 3 -15 10
-4 7 11 9 11 14 0 4 -10 6 -9 6 4 1 9 -3 17 -7 17 -17 0 -34 47 -24 66 17 34
-2 56 -26 32z"/>
<path d="M277 4483 c-12 -11 -7 -57 8 -77 8 -11 17 -17 20 -14 3 3 -1 11 -10
18 -8 7 -15 17 -15 22 0 15 29 40 39 33 5 -3 13 0 17 6 4 7 3 9 -4 5 -6 -3
-13 -2 -17 4 -7 11 -28 13 -38 3z"/>
<path d="M4905 4480 c-3 -5 0 -7 8 -4 10 3 16 -5 21 -26 3 -17 10 -29 16 -25
15 9 12 31 -6 49 -18 18 -30 20 -39 6z"/>
<path d="M4620 4470 c-9 -6 -10 -10 -3 -10 6 0 15 5 18 10 8 12 4 12 -15 0z"/>
<path d="M4801 4454 c0 -11 3 -14 6 -6 3 7 2 16 -1 19 -3 4 -6 -2 -5 -13z"/>
<path d="M450 4440 c0 -5 5 -10 11 -10 5 0 7 5 4 10 -3 6 -8 10 -11 10 -2 0
-4 -4 -4 -10z"/>
<path d="M4823 4435 c0 -8 4 -12 9 -9 4 3 8 9 8 15 0 5 -4 9 -8 9 -5 0 -9 -7
-9 -15z"/>
<path d="M336 4425 c7 -18 20 -19 30 -3 4 7 3 8 -4 4 -7 -4 -12 -2 -12 3 0 6
-4 11 -10 11 -5 0 -7 -7 -4 -15z"/>
<path d="M4893 4415 c0 -7 6 -11 14 -8 7 3 13 6 13 8 0 2 -6 5 -13 8 -8 3 -14
-1 -14 -8z"/>
<path d="M143 4408 c-22 -28 -24 -38 -9 -38 10 0 13 6 10 15 -4 9 2 18 17 24
16 6 18 10 8 10 -9 1 -21 -5 -26 -11z"/>
<path d="M4746 4413 c-11 -11 -7 -22 13 -32 16 -9 18 -8 14 9 -6 23 -17 33
-27 23z"/>
<path d="M4961 4411 c-8 -5 -11 -16 -7 -26 3 -10 9 -15 13 -12 3 4 12 -1 19
-11 8 -9 14 -12 14 -5 0 6 -5 15 -10 18 -6 4 -7 11 -4 17 5 7 2 8 -6 3 -10 -6
-12 -4 -7 8 7 19 7 20 -12 8z"/>
<path d="M201 4403 c-1 -6 4 -15 9 -18 6 -4 7 -11 4 -17 -4 -7 -2 -8 5 -4 8 6
10 0 6 -21 -3 -15 -2 -22 1 -15 3 6 9 10 14 7 4 -3 3 11 -2 30 -6 19 -15 32
-19 30 -4 -3 -10 1 -12 7 -4 9 -6 10 -6 1z"/>
<path d="M425 4400 c3 -5 -5 -15 -19 -22 -14 -6 -26 -16 -26 -21 0 -5 7 -4 15
3 8 6 19 9 25 5 5 -3 10 -2 10 4 0 5 3 16 6 25 3 9 1 16 -6 16 -6 0 -8 -4 -5
-10z"/>
<path d="M177 4371 c-4 -17 -3 -21 5 -13 5 5 8 16 6 23 -3 8 -7 3 -11 -10z"/>
<path d="M338 4378 c-6 -15 1 -38 10 -38 4 0 7 11 7 25 0 26 -10 33 -17 13z"/>
<path d="M4880 4374 c0 -8 5 -12 10 -9 6 4 8 11 5 16 -9 14 -15 11 -15 -7z"/>
<path d="M4921 4381 c-12 -8 -11 -12 4 -27 11 -12 14 -19 6 -22 -6 -2 -11 -11
-11 -19 0 -13 3 -13 15 -3 12 10 15 10 15 -4 0 -9 5 -16 10 -16 14 0 13 5 -10
49 -10 21 -16 41 -13 45 9 9 0 7 -16 -3z"/>
<path d="M4861 4334 c0 -11 3 -14 6 -6 3 7 2 16 -1 19 -3 4 -6 -2 -5 -13z"/>
<path d="M160 4330 c0 -5 5 -10 11 -10 5 0 7 5 4 10 -3 6 -8 10 -11 10 -2 0
-4 -4 -4 -10z"/>
<path d="M192 4328 c-18 -18 -15 -33 11 -54 21 -17 21 -17 5 0 -12 14 -14 25
-7 42 10 27 8 29 -9 12z"/>
<path d="M445 4334 c2 -4 0 -15 -5 -24 -7 -13 -6 -20 4 -23 11 -4 14 1 12 19
-2 13 -6 26 -9 29 -4 3 -5 2 -2 -1z"/>
<path d="M4971 4329 c-1 -9 7 -25 17 -36 9 -10 14 -14 10 -8 -4 6 -12 22 -17
36 -6 15 -10 18 -10 8z"/>
<path d="M4738 4323 c7 -3 16 -2 19 1 4 3 -2 6 -13 5 -11 0 -14 -3 -6 -6z"/>
<path d="M5000 4316 c0 -9 5 -16 10 -16 6 0 10 4 10 9 0 6 -4 13 -10 16 -5 3
-10 -1 -10 -9z"/>
<path d="M246 4311 c-17 -6 -17 -8 -4 -14 10 -3 19 0 22 9 3 8 4 14 3 13 -1 0
-11 -4 -21 -8z"/>
<path d="M157 4303 c-5 -7 -6 -17 -3 -22 3 -5 -5 -8 -19 -7 -16 0 -23 6 -20
13 3 10 0 10 -15 1 -22 -14 -34 -38 -20 -38 6 0 10 4 10 10 0 11 60 5 69 -7 3
-4 15 -9 26 -11 18 -3 19 -2 3 10 -9 7 -18 24 -20 38 -2 17 -6 21 -11 13z"/>
<path d="M4661 4294 c0 -11 3 -14 6 -6 3 7 2 16 -1 19 -3 4 -6 -2 -5 -13z"/>
<path d="M4846 4284 c-4 -14 -5 -28 -3 -31 3 -2 8 8 11 23 4 14 5 28 3 31 -3
2 -8 -8 -11 -23z"/>
<path d="M1017 4276 c-50 -18 -85 -51 -108 -101 -23 -49 -24 -94 -3 -143 31
-74 45 -82 463 -248 218 -86 650 -258 961 -381 311 -124 569 -225 573 -226 8
-2 117 247 117 268 0 7 -93 53 -207 103 -115 49 -453 197 -753 327 -300 131
-631 275 -735 321 -208 91 -250 101 -308 80z"/>
<path d="M4720 4275 c-11 -13 -10 -14 4 -9 9 3 16 10 16 15 0 13 -6 11 -20 -6z"/>
<path d="M246 4243 c4 -13 2 -23 -4 -23 -5 0 -12 -7 -16 -15 -8 -21 17 -14 27
8 4 9 7 20 8 25 0 4 5 12 9 17 6 7 2 11 -10 11 -15 0 -18 -5 -14 -23z"/>
<path d="M4877 4249 c4 -13 8 -18 11 -10 2 7 -1 18 -6 23 -8 8 -9 4 -5 -13z"/>
<path d="M4940 4253 c0 -10 4 -14 8 -8 4 6 11 13 16 18 5 4 2 7 -7 7 -10 0
-17 -8 -17 -17z"/>
<path d="M5020 4261 c0 -6 5 -13 10 -16 6 -3 10 1 10 9 0 9 -4 16 -10 16 -5 0
-10 -4 -10 -9z"/>
<path d="M4980 4241 c0 -11 4 -22 9 -25 4 -3 6 6 3 19 -5 30 -12 33 -12 6z"/>
<path d="M135 4240 c3 -5 8 -10 11 -10 2 0 4 5 4 10 0 6 -5 10 -11 10 -5 0 -7
-4 -4 -10z"/>
<path d="M280 4238 c0 -9 5 -20 10 -23 13 -8 13 5 0 25 -8 13 -10 13 -10 -2z"/>
<path d="M81 4233 c-1 -6 -4 -20 -7 -30 -5 -17 -5 -17 6 0 6 10 9 23 6 30 -3
9 -5 9 -5 0z"/>
<path d="M4696 4223 c-6 -14 -5 -15 5 -6 7 7 10 15 7 18 -3 3 -9 -2 -12 -12z"/>
<path d="M4910 4222 c0 -14 4 -21 11 -16 8 4 9 0 4 -15 -5 -16 -3 -20 9 -15
16 6 14 14 -14 54 -8 12 -10 11 -10 -8z"/>
<path d="M400 4220 c-8 -5 -12 -11 -9 -14 3 -3 14 1 25 9 21 16 8 20 -16 5z"/>
<path d="M155 4210 c-4 -6 -11 -7 -17 -4 -7 4 -8 2 -4 -4 10 -16 23 -15 30 3
6 17 0 20 -9 5z"/>
<path d="M450 4210 c0 -5 5 -10 11 -10 5 0 7 5 4 10 -3 6 -8 10 -11 10 -2 0
-4 -4 -4 -10z"/>
<path d="M5036 4199 c3 -6 1 -14 -5 -18 -8 -5 -9 -15 -2 -32 5 -13 10 -18 10
-10 1 7 7 11 16 7 8 -3 15 -3 15 0 0 9 -30 64 -36 64 -3 0 -2 -5 2 -11z"/>
<path d="M171 4184 c0 -11 3 -14 6 -6 3 7 2 16 -1 19 -3 4 -6 -2 -5 -13z"/>
<path d="M54 4177 c3 -10 6 -23 6 -28 0 -5 7 -9 15 -9 8 0 15 6 15 14 0 8 8
17 18 19 13 4 11 5 -5 6 -13 0 -23 -5 -23 -11 0 -8 -8 -4 -17 7 -14 18 -15 18
-9 2z"/>
<path d="M4824 4178 c-4 -7 -4 -10 1 -6 4 4 14 3 22 -4 11 -8 12 -7 7 6 -7 19
-20 21 -30 4z"/>
<path d="M4781 4144 c0 -11 3 -14 6 -6 3 7 2 16 -1 19 -3 4 -6 -2 -5 -13z"/>
<path d="M106 4144 c7 -3 10 -14 7 -24 -3 -11 -8 -18 -12 -16 -3 2 -6 -7 -6
-21 l0 -24 14 21 c22 33 23 70 3 69 -9 0 -12 -3 -6 -5z"/>
<path d="M4686 4135 c4 -8 8 -15 10 -15 2 0 4 7 4 15 0 8 -4 15 -10 15 -5 0
-7 -7 -4 -15z"/>
<path d="M4816 4125 c-3 -8 -1 -15 4 -15 6 0 10 7 10 15 0 8 -2 15 -4 15 -2 0
-6 -7 -10 -15z"/>
<path d="M4986 4131 c-6 -10 0 -13 20 -10 4 0 11 -5 16 -13 8 -11 9 -11 6 0
-2 8 -7 13 -12 12 -5 -1 -12 4 -16 10 -5 9 -9 9 -14 1z"/>
<path d="M52 4106 c-19 -19 -21 -25 -9 -34 14 -12 27 -6 27 12 0 6 -4 5 -9 -3
-6 -10 -10 -10 -16 -1 -4 7 1 13 14 17 12 3 21 12 21 19 0 18 0 17 -28 -10z"/>
<path d="M140 4120 c0 -13 18 -22 24 -11 3 5 -1 11 -9 15 -8 3 -15 1 -15 -4z"/>
<path d="M178 4107 c-3 -19 -2 -25 4 -19 6 6 8 18 6 28 -3 14 -5 12 -10 -9z"/>
<path d="M4796 4097 c3 -10 9 -15 12 -12 3 3 0 11 -7 18 -10 9 -11 8 -5 -6z"/>
<path d="M5017 4072 c-21 -23 -22 -51 -2 -48 9 1 14 6 13 12 -2 5 -7 8 -11 6
-4 -1 0 9 9 23 19 29 14 33 -9 7z"/>
<path d="M5060 4065 c0 -3 9 -16 21 -28 l21 -22 -13 28 c-11 23 -29 37 -29 22z"/>
<path d="M140 4050 c0 -5 5 -10 10 -10 6 0 10 5 10 10 0 6 -4 10 -10 10 -5 0
-10 -4 -10 -10z"/>
<path d="M67 4039 c7 -7 15 -10 18 -7 3 3 -2 9 -12 12 -14 6 -15 5 -6 -5z"/>
<path d="M4820 4046 c0 -2 7 -7 16 -10 8 -3 12 -2 9 4 -6 10 -25 14 -25 6z"/>
<path d="M175 4030 c3 -5 8 -10 11 -10 2 0 4 5 4 10 0 6 -5 10 -11 10 -5 0 -7
-4 -4 -10z"/>
<path d="M4921 4014 c0 -11 3 -14 6 -6 3 7 2 16 -1 19 -3 4 -6 -2 -5 -13z"/>
<path d="M35 4001 c-3 -6 -11 -9 -16 -6 -5 3 -6 -1 -3 -9 5 -14 8 -14 21 0 9
8 13 17 10 20 -3 3 -8 0 -12 -5z"/>
<path d="M4960 3995 c0 -5 5 -17 10 -25 5 -8 10 -10 10 -5 0 6 -5 17 -10 25
-5 8 -10 11 -10 5z"/>
<path d="M5042 3988 c-15 -15 -16 -28 -2 -28 6 0 10 6 10 14 0 8 6 17 13 19 6
3 7 6 2 6 -6 1 -16 -4 -23 -11z"/>
<path d="M141 3974 c0 -11 3 -14 6 -6 3 7 2 16 -1 19 -3 4 -6 -2 -5 -13z"/>
<path d="M4874 3964 c3 -9 6 -18 6 -20 0 -2 4 -4 9 -4 5 0 7 9 4 20 -3 11 -10
20 -15 20 -6 0 -7 -7 -4 -16z"/>
<path d="M5096 3954 c-4 -9 -4 -19 -1 -22 2 -3 7 3 11 12 4 9 4 19 1 22 -2 3
-7 -3 -11 -12z"/>
<path d="M4991 3941 c-8 -15 -7 -20 5 -25 24 -9 27 -7 14 9 -6 8 -9 19 -5 25
3 5 4 10 1 10 -3 0 -10 -9 -15 -19z"/>
<path d="M210 3920 c0 -5 5 -10 11 -10 5 0 7 5 4 10 -3 6 -8 10 -11 10 -2 0
-4 -4 -4 -10z"/>
<path d="M4890 3909 c0 -5 5 -7 10 -4 6 3 10 8 10 11 0 2 -4 4 -10 4 -5 0 -10
-5 -10 -11z"/>
<path d="M21 3894 c0 -11 3 -14 6 -6 3 7 2 16 -1 19 -3 4 -6 -2 -5 -13z"/>
<path d="M186 3893 c-6 -14 -5 -15 5 -6 7 7 10 15 7 18 -3 3 -9 -2 -12 -12z"/>
<path d="M74 3884 c5 -13 2 -15 -13 -11 -17 4 -18 2 -8 -14 11 -18 13 -18 25
-2 15 21 16 43 1 43 -6 0 -8 -7 -5 -16z"/>
<path d="M4987 3888 c-2 -7 0 -23 4 -35 5 -13 6 -31 3 -40 -5 -17 -5 -17 6 0
6 9 9 21 5 26 -3 5 1 12 7 14 10 4 10 6 1 6 -7 1 -13 8 -13 17 0 9 5 12 12 8
7 -4 8 -3 4 4 -9 16 -23 15 -29 0z"/>
<path d="M3296 3882 c-2 -4 -41 -97 -86 -207 -45 -110 -138 -334 -206 -498
-68 -164 -124 -305 -124 -312 0 -46 23 -64 155 -119 135 -57 178 -66 208 -43
10 6 71 139 136 293 l119 282 -19 243 c-10 134 -18 258 -19 276 0 25 -6 33
-27 41 -16 5 -51 19 -80 31 -29 11 -54 17 -57 13z"/>
<path d="M5106 3825 c-9 -26 -7 -32 5 -12 6 10 9 21 6 23 -2 3 -7 -2 -11 -11z"/>
<path d="M5010 3801 c0 -5 5 -13 10 -16 6 -3 10 -2 10 4 0 5 -4 13 -10 16 -5
3 -10 2 -10 -4z"/>
<path d="M160 3780 c6 -11 13 -20 16 -20 2 0 0 9 -6 20 -6 11 -13 20 -16 20
-2 0 0 -9 6 -20z"/>
<path d="M5090 3752 c0 -5 7 -15 15 -22 8 -7 15 -9 15 -6 0 4 -7 14 -15 22 -8
9 -15 11 -15 6z"/>
<path d="M211 3734 c0 -11 3 -14 6 -6 3 7 2 16 -1 19 -3 4 -6 -2 -5 -13z"/>
<path d="M4940 3679 c0 -5 5 -7 10 -4 6 3 10 8 10 11 0 2 -4 4 -10 4 -5 0 -10
-5 -10 -11z"/>
<path d="M40 3640 c0 -5 5 -10 11 -10 5 0 7 5 4 10 -3 6 -8 10 -11 10 -2 0 -4
-4 -4 -10z"/>
<path d="M4980 3606 c0 -2 6 -9 14 -15 10 -9 17 -7 27 6 13 16 12 17 -3 4 -12
-9 -18 -10 -18 -2 0 6 -4 11 -10 11 -5 0 -10 -2 -10 -4z"/>
<path d="M48 3387 c-3 -14 0 -24 7 -24 7 0 10 10 7 24 -2 13 -6 23 -7 23 -1 0
-5 -10 -7 -23z"/>
<path d="M5081 3384 c0 -11 3 -14 6 -6 3 7 2 16 -1 19 -3 4 -6 -2 -5 -13z"/>
<path d="M5105 3060 c-3 -5 -1 -10 4 -10 6 0 11 5 11 10 0 6 -2 10 -4 10 -3 0
-8 -4 -11 -10z"/>
<path d="M2270 2132 l0 -379 43 -13 c114 -34 194 -100 226 -186 50 -133 -27
-301 -166 -361 -28 -12 -77 -18 -180 -21 l-143 -4 0 -124 0 -124 238 0 c197 0
241 3 259 15 100 70 231 108 373 108 135 0 237 -27 353 -95 l48 -28 219 0 220
0 0 124 0 124 -152 4 c-139 3 -158 6 -209 30 -148 68 -189 254 -98 446 78 164
244 309 496 436 102 51 257 114 346 142 l57 18 0 133 0 133 -965 0 -965 0 0
-378z"/>
<path d="M1272 2279 c76 -144 260 -276 519 -372 89 -33 348 -107 377 -107 9 0
12 61 12 270 l0 270 -471 0 -470 0 33 -61z"/>
<path d="M41 2104 c0 -11 3 -14 6 -6 3 7 2 16 -1 19 -3 4 -6 -2 -5 -13z"/>
<path d="M20 1959 c0 -11 4 -18 10 -14 5 3 7 12 3 20 -7 21 -13 19 -13 -6z"/>
<path d="M35 1799 c-4 -6 -5 -12 -2 -15 2 -3 7 2 10 11 7 17 1 20 -8 4z"/>
<path d="M6 1743 c-6 -14 -5 -15 5 -6 7 7 10 15 7 18 -3 3 -9 -2 -12 -12z"/>
<path d="M90 1690 c0 -5 5 -10 10 -10 6 0 10 5 10 10 0 6 -4 10 -10 10 -5 0
-10 -4 -10 -10z"/>
<path d="M75 1540 c-3 -5 -1 -10 4 -10 6 0 11 5 11 10 0 6 -2 10 -4 10 -3 0
-8 -4 -11 -10z"/>
<path d="M4923 1505 c0 -8 4 -12 9 -9 5 3 6 10 3 15 -9 13 -12 11 -12 -6z"/>
<path d="M60 1481 c0 -6 4 -13 10 -16 6 -3 7 1 4 9 -7 18 -14 21 -14 7z"/>
<path d="M5102 1470 c0 -14 2 -19 5 -12 2 6 2 18 0 25 -3 6 -5 1 -5 -13z"/>
<path d="M5030 1432 c0 -12 3 -12 15 -2 8 7 15 13 15 15 0 1 -7 2 -15 2 -8 0
-15 -7 -15 -15z"/>
<path d="M5066 1407 c3 -10 9 -15 12 -12 3 3 0 11 -7 18 -10 9 -11 8 -5 -6z"/>
<path d="M1 1384 c0 -11 3 -14 6 -6 3 7 2 16 -1 19 -3 4 -6 -2 -5 -13z"/>
<path d="M50 1374 c0 -8 5 -12 10 -9 6 4 8 11 5 16 -9 14 -15 11 -15 -7z"/>
<path d="M5070 1361 c0 -5 5 -13 10 -16 6 -3 10 -2 10 4 0 5 -4 13 -10 16 -5
3 -10 2 -10 -4z"/>
<path d="M4920 1304 c0 -6 7 -19 15 -30 8 -10 14 -14 14 -9 0 6 -6 19 -14 29
-8 11 -15 15 -15 10z"/>
<path d="M0 1284 c0 -8 5 -12 10 -9 6 4 8 11 5 16 -9 14 -15 11 -15 -7z"/>
<path d="M5015 1289 c-4 -6 -5 -12 -2 -15 2 -3 7 2 10 11 7 17 1 20 -8 4z"/>
<path d="M5047 1283 c5 -12 3 -14 -7 -8 -9 5 -11 4 -6 -3 11 -19 26 -14 26 8
0 11 -4 20 -10 20 -5 0 -6 -7 -3 -17z"/>
<path d="M30 1281 c0 -6 4 -13 10 -16 6 -3 7 1 4 9 -7 18 -14 21 -14 7z"/>
<path d="M5077 1255 c7 -36 13 -45 13 -21 0 9 4 15 9 12 5 -4 7 3 4 15 -4 14
-8 17 -13 9 -6 -9 -9 -9 -13 1 -4 8 -4 1 0 -16z"/>
<path d="M81 1234 c0 -11 3 -14 6 -6 3 7 2 16 -1 19 -3 4 -6 -2 -5 -13z"/>
<path d="M4990 1213 c0 -38 32 -58 44 -27 4 10 2 13 -6 8 -6 -4 -17 1 -25 11
-7 11 -13 14 -13 8z"/>
<path d="M56 1195 c-3 -8 -1 -15 4 -15 6 0 10 7 10 15 0 8 -2 15 -4 15 -2 0
-6 -7 -10 -15z"/>
<path d="M10 1185 c0 -8 2 -15 4 -15 2 0 6 7 10 15 3 8 1 15 -4 15 -6 0 -10
-7 -10 -15z"/>
<path d="M310 1175 c0 -8 4 -15 10 -15 5 0 7 7 4 15 -4 8 -8 15 -10 15 -2 0
-4 -7 -4 -15z"/>
<path d="M4890 1175 c-10 -12 -10 -15 2 -15 8 0 15 7 15 15 0 8 -1 15 -2 15
-2 0 -8 -7 -15 -15z"/>
<path d="M5050 1181 c0 -5 5 -13 10 -16 6 -3 10 -2 10 4 0 5 -4 13 -10 16 -5
3 -10 2 -10 -4z"/>
<path d="M91 1147 c-13 -21 -12 -21 5 -5 10 10 16 20 13 22 -3 3 -11 -5 -18
-17z"/>
<path d="M5027 1109 c-3 -10 -1 -22 4 -25 5 -3 9 -2 8 3 -1 4 -1 14 0 21 2 22
31 -13 31 -37 0 -12 4 -21 9 -21 6 0 6 12 1 31 -5 18 -8 35 -6 38 2 3 -6 7
-19 7 -15 1 -25 -5 -28 -17z"/>
<path d="M40 1099 c0 -11 4 -18 10 -14 5 3 7 12 3 20 -7 21 -13 19 -13 -6z"/>
<path d="M4805 1100 c-3 -5 -1 -10 4 -10 6 0 11 5 11 10 0 6 -2 10 -4 10 -3 0
-8 -4 -11 -10z"/>
<path d="M4912 1079 c-7 -12 -11 -24 -7 -27 7 -8 25 17 25 36 0 17 -3 15 -18
-9z"/>
<path d="M76 1049 c-3 -22 -10 -37 -15 -34 -5 3 -7 -5 -3 -17 5 -19 7 -17 21
20 8 22 22 43 30 45 13 2 11 5 -5 15 -20 11 -22 9 -28 -29z"/>
<path d="M5032 1033 c7 -18 16 -33 21 -33 4 0 12 -10 17 -22 6 -17 9 -18 9 -6
1 9 -3 20 -9 23 -5 3 -10 16 -10 27 0 12 -3 18 -7 15 -3 -4 -12 1 -19 11 -11
14 -11 12 -2 -15z"/>
<path d="M231 1034 c0 -11 3 -14 6 -6 3 7 2 16 -1 19 -3 4 -6 -2 -5 -13z"/>
<path d="M4963 1043 c-15 -5 -17 -23 -4 -23 5 0 11 7 15 15 3 8 4 15 3 14 -1
0 -8 -3 -14 -6z"/>
<path d="M170 1028 c-12 -8 -12 -9 2 -5 9 3 19 1 22 -6 3 -9 5 -9 5 0 1 18
-13 23 -29 11z"/>
<path d="M300 1029 c0 -5 5 -7 10 -4 6 3 10 8 10 11 0 2 -4 4 -10 4 -5 0 -10
-5 -10 -11z"/>
<path d="M380 1031 c0 -6 4 -13 10 -16 6 -3 7 1 4 9 -7 18 -14 21 -14 7z"/>
<path d="M4800 1036 c0 -2 8 -10 18 -17 15 -13 16 -12 3 4 -13 16 -21 21 -21
13z"/>
<path d="M4990 1010 c0 -5 5 -10 10 -10 6 0 10 5 10 10 0 6 -4 10 -10 10 -5 0
-10 -4 -10 -10z"/>
<path d="M90 990 c0 -5 5 -10 10 -10 6 0 10 5 10 10 0 6 -4 10 -10 10 -5 0
-10 -4 -10 -10z"/>
<path d="M206 965 c4 -8 8 -15 10 -15 2 0 4 7 4 15 0 8 -4 15 -10 15 -5 0 -7
-7 -4 -15z"/>
<path d="M4800 969 c0 -5 5 -7 10 -4 6 3 10 8 10 11 0 2 -4 4 -10 4 -5 0 -10
-5 -10 -11z"/>
<path d="M46 957 c3 -10 9 -15 12 -12 3 3 0 11 -7 18 -10 9 -11 8 -5 -6z"/>
<path d="M144 959 c-3 -6 -1 -16 4 -21 8 -8 11 -5 9 11 -1 24 -3 25 -13 10z"/>
<path d="M315 960 c-3 -6 1 -7 9 -4 18 7 21 14 7 14 -6 0 -13 -4 -16 -10z"/>
<path d="M4896 955 c4 -10 1 -14 -7 -12 -8 2 -11 2 -6 0 13 -8 8 -21 -10 -27
-10 -2 -5 -4 11 -3 25 2 30 6 31 30 0 15 -5 27 -12 27 -7 0 -10 -7 -7 -15z"/>
<path d="M4953 955 c-3 -9 -3 -19 1 -22 3 -4 6 -1 6 6 0 7 4 9 10 6 6 -3 7 1
4 9 -8 20 -13 20 -21 1z"/>
<path d="M80 934 c0 -8 5 -12 10 -9 6 3 10 10 10 16 0 5 -4 9 -10 9 -5 0 -10
-7 -10 -16z"/>
<path d="M180 929 c0 -5 5 -7 10 -4 6 3 10 8 10 11 0 2 -4 4 -10 4 -5 0 -10
-5 -10 -11z"/>
<path d="M255 930 c3 -5 8 -10 11 -10 2 0 4 5 4 10 0 6 -5 10 -11 10 -5 0 -7
-4 -4 -10z"/>
<path d="M390 921 c0 -25 6 -27 13 -6 4 8 2 17 -3 20 -6 4 -10 -3 -10 -14z"/>
<path d="M4740 915 c-7 -9 -10 -18 -7 -22 4 -3 9 2 13 11 3 9 11 13 17 9 6 -3
7 -1 3 5 -9 15 -11 15 -26 -3z"/>
<path d="M4966 913 c-6 -14 -5 -15 5 -6 7 7 10 15 7 18 -3 3 -9 -2 -12 -12z"/>
<path d="M135 909 c-4 -6 -5 -12 -2 -15 2 -3 7 2 10 11 7 17 1 20 -8 4z"/>
<path d="M4797 909 c7 -7 15 -10 18 -7 3 3 -2 9 -12 12 -14 6 -15 5 -6 -5z"/>
<path d="M210 901 c0 -10 19 -25 25 -20 1 2 -3 10 -11 17 -8 7 -14 8 -14 3z"/>
<path d="M77 885 c-3 -6 1 -19 8 -28 11 -16 13 -15 17 11 4 28 -16 42 -25 17z"/>
<path d="M165 890 c3 -5 -2 -10 -12 -10 -15 0 -15 -2 -3 -10 9 -5 19 -5 27 2
18 14 16 28 -3 28 -8 0 -12 -4 -9 -10z"/>
<path d="M4916 883 c-4 -9 -1 -20 5 -24 7 -4 8 -12 3 -20 -6 -12 -5 -12 8 -1
13 10 17 10 21 0 4 -10 6 -10 6 0 1 7 -5 15 -13 18 -8 3 -13 14 -11 25 5 23
-10 25 -19 2z"/>
<path d="M5039 883 c-13 -16 -12 -17 4 -4 16 13 21 21 13 21 -2 0 -10 -8 -17
-17z"/>
<path d="M263 865 c0 -8 4 -15 9 -15 4 0 8 4 8 9 0 6 -4 12 -8 15 -5 3 -9 -1
-9 -9z"/>
<path d="M306 867 c3 -10 9 -15 12 -12 3 3 0 11 -7 18 -10 9 -11 8 -5 -6z"/>
<path d="M4770 871 c0 -5 5 -13 10 -16 6 -3 10 -2 10 4 0 5 -4 13 -10 16 -5 3
-10 2 -10 -4z"/>
<path d="M230 861 c-8 -6 -18 -8 -22 -5 -8 5 -68 -23 -68 -32 0 -3 5 -2 10 1
6 3 10 1 10 -5 0 -6 5 -8 10 -5 6 3 10 -2 11 -12 0 -11 3 -13 6 -5 3 7 0 19
-6 26 -16 19 16 31 38 14 9 -7 13 -8 9 -4 -4 5 0 15 10 22 19 15 14 18 -8 5z"/>
<path d="M4843 850 c6 -22 -8 -28 -16 -7 -3 7 -6 5 -6 -5 -1 -12 6 -18 19 -18
11 0 20 -5 20 -11 0 -5 -4 -7 -10 -4 -5 3 -10 1 -10 -4 0 -18 26 -12 45 9 18
19 11 26 -19 21 -5 -1 -6 7 -3 19 3 14 0 20 -10 20 -10 0 -14 -6 -10 -20z"/>
<path d="M4986 814 c-8 -21 -8 -39 1 -30 8 7 15 46 9 46 -2 0 -7 -7 -10 -16z"/>
<path d="M211 794 c0 -11 3 -14 6 -6 3 7 2 16 -1 19 -3 4 -6 -2 -5 -13z"/>
<path d="M4808 800 c6 -8 12 -26 12 -41 0 -15 6 -30 13 -33 9 -5 9 -7 0 -12
-7 -3 -9 -12 -6 -20 6 -16 33 -19 33 -3 0 5 -4 7 -10 4 -14 -9 -13 8 2 23 9 9
7 13 -6 18 -10 4 -14 13 -11 24 3 10 -4 24 -17 36 -13 10 -17 12 -10 4z"/>
<path d="M4883 793 c-3 -10 -8 -22 -10 -28 -3 -5 4 0 15 12 11 12 23 19 27 15
5 -4 5 -1 1 6 -10 17 -26 15 -33 -5z"/>
<path d="M330 790 c0 -5 5 -10 10 -10 6 0 10 5 10 10 0 6 -4 10 -10 10 -5 0
-10 -4 -10 -10z"/>
<path d="M408 793 c7 -3 16 -2 19 1 4 3 -2 6 -13 5 -11 0 -14 -3 -6 -6z"/>
<path d="M4622 784 c-11 -12 -9 -13 7 -11 11 2 24 7 28 12 5 4 3 5 -4 2 -6 -4
-13 -3 -15 2 -1 5 -9 3 -16 -5z"/>
<path d="M4781 784 c0 -11 3 -14 6 -6 3 7 2 16 -1 19 -3 4 -6 -2 -5 -13z"/>
<path d="M177 769 c-9 -5 -21 -8 -26 -5 -5 3 -12 -1 -15 -10 -11 -29 -6 -38
10 -18 8 10 12 12 8 4 -4 -8 5 -4 19 9 35 32 37 39 4 20z"/>
<path d="M290 765 c0 -8 2 -15 4 -15 2 0 6 7 10 15 3 8 1 15 -4 15 -6 0 -10
-7 -10 -15z"/>
<path d="M4946 768 c3 -5 10 -6 15 -3 13 9 11 12 -6 12 -8 0 -12 -4 -9 -9z"/>
<path d="M4573 739 c6 -10 14 -16 19 -13 11 7 -1 31 -16 31 -11 0 -12 -4 -3
-18z"/>
<path d="M4685 749 c-4 -6 -5 -12 -2 -15 2 -3 7 2 10 11 7 17 1 20 -8 4z"/>
<path d="M4889 743 c-12 -14 -12 -16 0 -8 11 6 13 4 8 -9 -4 -10 -7 -20 -7
-22 0 -3 -4 -3 -8 0 -5 3 -9 -1 -9 -9 0 -8 3 -13 6 -10 2 3 10 -7 17 -22 13
-28 13 -28 9 10 -2 21 -1 36 3 33 5 -3 14 -1 22 5 12 7 12 9 -4 9 -12 0 -16 5
-13 15 9 21 -9 27 -24 8z"/>
<path d="M190 740 c0 -5 5 -10 11 -10 5 0 7 5 4 10 -3 6 -8 10 -11 10 -2 0 -4
-4 -4 -10z"/>
<path d="M310 734 c0 -8 5 -12 10 -9 6 4 8 11 5 16 -9 14 -15 11 -15 -7z"/>
<path d="M401 747 c2 -1 13 -9 24 -17 19 -14 19 -14 6 3 -7 9 -18 17 -24 17
-6 0 -8 -1 -6 -3z"/>
<path d="M495 740 c3 -5 8 -10 11 -10 2 0 4 5 4 10 0 6 -5 10 -11 10 -5 0 -7
-4 -4 -10z"/>
<path d="M355 730 c3 -5 8 -10 11 -10 2 0 4 5 4 10 0 6 -5 10 -11 10 -5 0 -7
-4 -4 -10z"/>
<path d="M556 725 c4 -8 10 -12 15 -9 11 6 2 24 -11 24 -5 0 -7 -7 -4 -15z"/>
<path d="M225 720 c3 -5 8 -10 11 -10 2 0 4 5 4 10 0 6 -5 10 -11 10 -5 0 -7
-4 -4 -10z"/>
<path d="M4766 708 c3 -5 10 -6 15 -3 13 9 11 12 -6 12 -8 0 -12 -4 -9 -9z"/>
<path d="M153 695 c10 -7 25 -22 33 -32 13 -16 13 -15 3 9 -6 14 -21 29 -33
32 -20 5 -20 4 -3 -9z"/>
<path d="M4952 685 c0 -16 2 -22 5 -12 2 9 2 23 0 30 -3 6 -5 -1 -5 -18z"/>
<path d="M4620 691 c0 -7 7 -19 15 -27 19 -20 19 -5 0 20 -9 11 -15 14 -15 7z"/>
<path d="M215 679 c-11 -16 -1 -19 13 -3 7 8 8 14 3 14 -5 0 -13 -5 -16 -11z"/>
<path d="M4595 678 c5 -13 2 -15 -12 -12 -13 4 -19 0 -19 -14 0 -10 6 -19 12
-19 7 0 10 7 6 15 -3 10 -1 13 6 8 15 -9 26 14 13 27 -9 9 -11 8 -6 -5z"/>
<path d="M306 655 c-3 -9 0 -15 9 -15 9 0 12 6 9 15 -4 8 -7 15 -9 15 -2 0 -5
-7 -9 -15z"/>
<path d="M472 650 c0 -14 2 -19 5 -12 2 6 2 18 0 25 -3 6 -5 1 -5 -13z"/>
<path d="M4710 664 c0 -18 13 -24 27 -13 10 9 13 7 13 -8 0 -10 5 -24 12 -31
9 -9 9 -12 -2 -12 -11 0 -11 -3 -2 -12 8 -8 15 -8 25 0 8 7 18 8 22 4 5 -4 5
-1 1 6 -4 7 -12 9 -18 6 -7 -5 -9 -1 -5 9 4 10 2 16 -6 14 -6 -1 -13 8 -15 21
-4 24 -17 29 -28 11 -4 -8 -9 -7 -15 2 -5 8 -9 9 -9 3z"/>
<path d="M4830 655 c0 -12 -5 -26 -10 -31 -7 -7 -6 -11 4 -11 18 0 27 30 15
48 -7 11 -9 9 -9 -6z"/>
<path d="M372 648 c-14 -14 -16 -28 -3 -28 5 0 11 9 14 20 6 23 5 24 -11 8z"/>
<path d="M209 648 c0 -2 -2 -15 -3 -30 -2 -34 9 -37 18 -5 5 18 8 20 16 7 6
-9 10 -11 10 -3 0 10 -38 39 -41 31z"/>
<path d="M4680 639 c0 -5 5 -7 10 -4 6 3 10 8 10 11 0 2 -4 4 -10 4 -5 0 -10
-5 -10 -11z"/>
<path d="M4925 640 c-3 -5 -1 -10 4 -10 6 0 11 5 11 10 0 6 -2 10 -4 10 -3 0
-8 -4 -11 -10z"/>
<path d="M313 612 c4 -18 2 -22 -9 -18 -9 3 -14 -1 -14 -14 0 -23 8 -25 31 -7
13 10 13 15 1 37 -13 24 -14 24 -9 2z"/>
<path d="M4903 619 c3 -8 -3 -20 -13 -27 -14 -8 -17 -8 -16 5 0 9 -5 17 -12
19 -7 1 -8 0 -2 -3 15 -7 12 -23 -4 -17 -8 3 -17 1 -21 -5 -3 -7 0 -8 9 -5 11
4 16 0 16 -15 0 -19 -15 -27 -43 -22 -5 1 -6 -3 -2 -8 6 -10 31 -5 51 10 6 5
14 6 17 2 4 -3 10 3 14 13 3 10 11 22 16 25 6 4 5 14 -3 25 -7 12 -10 13 -7 3z"/>
<path d="M4575 610 c3 -5 -3 -11 -12 -13 -15 -4 -15 -5 2 -6 11 0 26 3 33 8
10 6 9 10 -7 14 -12 3 -19 1 -16 -3z"/>
<path d="M4677 606 c-10 -8 -14 -16 -10 -19 5 -3 14 3 21 14 14 22 13 23 -11
5z"/>
<path d="M382 598 c2 -5 8 -9 13 -9 5 0 11 4 13 9 1 5 -4 9 -13 9 -9 0 -14 -4
-13 -9z"/>
<path d="M476 592 c2 -2 -2 -14 -8 -26 -10 -20 -10 -20 8 -4 12 12 15 21 8 27
-6 5 -9 6 -8 3z"/>
<path d="M610 596 c0 -2 8 -10 18 -17 15 -13 16 -12 3 4 -13 16 -21 21 -21 13z"/>
<path d="M4455 574 c0 -13 3 -24 8 -24 4 0 7 9 7 19 0 11 -3 22 -7 24 -5 3 -8
-6 -8 -19z"/>
<path d="M272 570 c0 -14 2 -19 5 -12 2 6 2 18 0 25 -3 6 -5 1 -5 -13z"/>
<path d="M4604 575 c-4 -8 -11 -12 -17 -8 -6 3 -7 1 -3 -5 11 -18 23 -14 29 8
6 23 -1 27 -9 5z"/>
<path d="M225 570 c3 -5 8 -10 11 -10 2 0 4 5 4 10 0 6 -5 10 -11 10 -5 0 -7
-4 -4 -10z"/>
<path d="M4486 564 c-8 -20 -8 -24 2 -24 4 0 8 9 9 20 2 24 -3 26 -11 4z"/>
<path d="M370 561 c0 -5 -9 -11 -19 -14 -23 -6 -45 -43 -31 -52 5 -3 10 -1 10
4 0 6 17 11 38 11 27 0 33 3 22 10 -8 5 -12 12 -8 15 3 3 13 -1 21 -10 10 -9
18 -11 22 -5 3 5 1 10 -4 10 -6 0 -20 9 -31 20 -11 11 -20 16 -20 11z"/>
<path d="M4744 558 c-4 -7 -4 -10 1 -6 4 4 15 2 24 -5 14 -11 14 -10 2 6 -16
20 -18 21 -27 5z"/>
<path d="M305 540 c-10 -11 -16 -22 -14 -24 2 -2 12 7 22 20 22 29 17 32 -8 4z"/>
<path d="M860 549 c0 -5 5 -7 10 -4 6 3 10 8 10 11 0 2 -4 4 -10 4 -5 0 -10
-5 -10 -11z"/>
<path d="M4697 553 c-11 -17 13 -28 26 -13 9 10 9 11 0 6 -6 -3 -13 -1 -15 6
-3 9 -6 9 -11 1z"/>
<path d="M493 535 c0 -8 6 -16 14 -19 7 -3 13 -2 13 3 0 5 -6 14 -13 20 -10 8
-14 7 -14 -4z"/>
<path d="M640 541 c0 -6 -10 -19 -22 -31 -15 -14 -17 -20 -7 -20 19 1 52 47
39 55 -5 3 -10 2 -10 -4z"/>
<path d="M470 531 c0 -8 -7 -11 -15 -7 -12 4 -13 2 -3 -14 12 -19 13 -19 21 2
4 11 5 23 2 26 -3 3 -5 0 -5 -7z"/>
<path d="M4729 523 c-13 -15 -12 -15 8 -5 16 9 22 9 26 -1 3 -9 8 -9 18 2 8 8
9 11 2 7 -6 -3 -14 -2 -18 4 -9 14 -21 12 -36 -7z"/>
<path d="M540 526 c0 -2 7 -7 16 -10 8 -3 12 -2 9 4 -6 10 -25 14 -25 6z"/>
<path d="M4670 521 c0 -6 5 -11 11 -11 7 0 10 -12 7 -30 -5 -34 7 -41 15 -9 4
13 10 18 18 13 8 -4 10 -3 5 5 -4 6 -12 9 -17 5 -6 -3 -9 2 -7 12 2 11 -4 20
-14 22 -10 2 -18 -1 -18 -7z"/>
<path d="M4534 504 c2 -6 -1 -17 -7 -23 -6 -6 -9 -13 -6 -15 2 -2 15 9 29 24
l26 28 -23 -2 c-13 0 -21 -6 -19 -12z"/>
<path d="M4824 500 c0 -18 2 -18 18 -3 10 9 18 18 18 20 0 1 -8 3 -18 3 -11 0
-18 -7 -18 -20z"/>
<path d="M4740 500 c0 -5 5 -10 11 -10 5 0 7 5 4 10 -3 6 -8 10 -11 10 -2 0
-4 -4 -4 -10z"/>
<path d="M373 493 c-7 -2 -13 -14 -13 -24 0 -11 -4 -18 -9 -15 -5 3 -11 -1
-15 -9 -3 -8 -1 -17 3 -20 5 -3 12 2 15 11 4 11 13 13 28 9 22 -7 22 -7 3 8
-16 13 -17 17 -6 31 14 17 14 18 -6 9z"/>
<path d="M431 484 c0 -11 3 -14 6 -6 3 7 2 16 -1 19 -3 4 -6 -2 -5 -13z"/>
<path d="M656 485 c-3 -8 -1 -15 4 -15 6 0 10 7 10 15 0 8 -2 15 -4 15 -2 0
-6 -7 -10 -15z"/>
<path d="M4650 489 c0 -5 -4 -8 -9 -4 -5 3 -12 1 -16 -5 -3 -5 1 -10 9 -10 8
0 18 5 21 10 4 6 11 8 16 5 5 -4 9 -1 9 4 0 6 -7 11 -15 11 -8 0 -15 -5 -15
-11z"/>
<path d="M4755 466 c-15 -12 -25 -28 -21 -34 3 -6 1 -14 -5 -18 -8 -5 -10 3
-7 25 2 17 1 31 -4 31 -4 0 -8 -12 -8 -27 0 -20 -3 -24 -9 -14 -11 17 -32 6
-25 -13 7 -20 69 -16 70 4 1 8 2 21 3 29 1 8 8 11 20 8 27 -7 46 7 29 21 -11
8 -21 6 -43 -12z"/>
<path d="M380 470 c0 -5 5 -10 10 -10 6 0 10 5 10 10 0 6 -4 10 -10 10 -5 0
-10 -4 -10 -10z"/>
<path d="M488 458 c3 -14 1 -19 -6 -14 -6 3 -13 2 -16 -3 -4 -5 1 -8 11 -7 21
3 39 46 19 46 -10 0 -12 -7 -8 -22z"/>
<path d="M555 462 c-5 -4 -10 -14 -10 -22 0 -8 -11 -17 -25 -21 -14 -4 -18 -7
-8 -8 9 -1 25 -4 35 -7 15 -5 15 -4 3 5 -13 9 -9 14 10 13 3 0 6 11 6 24 1 13
1 24 0 24 0 0 -5 -4 -11 -8z"/>
<path d="M705 451 c6 -19 4 -23 -8 -18 -13 5 -16 -5 -8 -30 1 -2 10 6 21 17
19 19 20 22 4 37 -16 16 -16 16 -9 -6z"/>
<path d="M4573 459 c-13 -13 -6 -42 8 -34 4 3 5 13 2 22 -5 12 -3 14 7 8 9 -5
11 -4 6 3 -9 15 -9 15 -23 1z"/>
<path d="M410 456 c0 -3 9 -10 20 -16 11 -6 20 -8 20 -6 0 3 -9 10 -20 16 -11
6 -20 8 -20 6z"/>
<path d="M635 450 c3 -5 8 -10 11 -10 2 0 4 5 4 10 0 6 -5 10 -11 10 -5 0 -7
-4 -4 -10z"/>
<path d="M906 447 c3 -10 9 -15 12 -12 3 3 0 11 -7 18 -10 9 -11 8 -5 -6z"/>
<path d="M600 432 c0 -12 4 -22 9 -22 10 0 9 26 -2 36 -4 4 -7 -2 -7 -14z"/>
<path d="M4621 428 c-9 -23 -6 -36 4 -26 8 7 15 48 9 48 -3 0 -8 -10 -13 -22z"/>
<path d="M4225 431 c-3 -5 -1 -12 5 -16 5 -3 10 1 10 9 0 18 -6 21 -15 7z"/>
<path d="M385 420 c-3 -5 -1 -10 4 -10 6 0 11 5 11 10 0 6 -2 10 -4 10 -3 0
-8 -4 -11 -10z"/>
<path d="M445 411 c3 -5 -4 -12 -15 -16 -11 -3 -20 -13 -20 -21 0 -9 -5 -12
-12 -8 -7 4 -8 3 -4 -4 5 -9 13 -9 27 -2 11 6 17 15 14 21 -4 5 1 9 10 9 8 0
19 -9 23 -21 l8 -20 18 20 c18 20 13 27 -17 22 -4 -1 -10 6 -13 14 -4 8 -10
15 -16 15 -5 0 -7 -4 -3 -9z"/>
<path d="M1078 413 c7 -3 16 -2 19 1 4 3 -2 6 -13 5 -11 0 -14 -3 -6 -6z"/>
<path d="M4278 405 c13 -9 26 -14 29 -11 8 8 3 12 -27 21 l-25 7 23 -17z"/>
<path d="M650 400 c-9 -6 -10 -10 -3 -10 6 0 15 5 18 10 8 12 4 12 -15 0z"/>
<path d="M4450 405 c-1 -5 -2 -14 -1 -19 1 -4 -4 -15 -11 -24 -11 -13 -11 -14
2 -7 8 6 18 10 22 10 3 0 10 4 15 9 4 5 3 6 -4 2 -7 -4 -13 2 -16 16 -2 13 -5
19 -7 13z"/>
<path d="M380 390 c-13 -8 -12 -10 3 -10 9 0 17 5 17 10 0 12 -1 12 -20 0z"/>
<path d="M596 391 c-4 -5 3 -7 14 -4 23 6 26 13 6 13 -8 0 -17 -4 -20 -9z"/>
<path d="M4050 390 c0 -5 5 -10 11 -10 5 0 7 5 4 10 -3 6 -8 10 -11 10 -2 0
-4 -4 -4 -10z"/>
<path d="M4580 396 c0 -2 7 -7 16 -10 8 -3 12 -2 9 4 -6 10 -25 14 -25 6z"/>
<path d="M519 368 c-9 -19 -9 -21 2 -10 16 15 33 16 23 0 -4 -7 -3 -8 4 -4 12
7 5 36 -9 36 -4 0 -14 -10 -20 -22z"/>
<path d="M4138 383 c7 -3 16 -2 19 1 4 3 -2 6 -13 5 -11 0 -14 -3 -6 -6z"/>
<path d="M4550 390 c-10 -32 -7 -39 11 -30 10 6 19 13 19 16 0 3 -4 3 -9 0 -5
-4 -12 0 -14 6 -3 7 -6 11 -7 8z"/>
<path d="M804 364 c-18 -14 -18 -14 6 -3 31 14 36 19 24 19 -6 0 -19 -7 -30
-16z"/>
<path d="M4600 365 c-16 -9 -19 -14 -9 -15 8 0 20 5 27 12 8 8 15 8 28 -3 10
-8 15 -9 11 -2 -4 6 -1 14 5 16 7 3 2 6 -12 6 -14 0 -36 -6 -50 -14z"/>
<path d="M4688 373 c6 -2 18 -2 25 0 6 3 1 5 -13 5 -14 0 -19 -2 -12 -5z"/>
<path d="M630 361 c0 -5 5 -13 10 -16 6 -3 10 -2 10 4 0 5 -4 13 -10 16 -5 3
-10 2 -10 -4z"/>
<path d="M4375 350 c-7 -11 22 -26 32 -16 4 3 -1 6 -11 6 -9 0 -14 5 -11 10 3
6 4 10 1 10 -3 0 -8 -5 -11 -10z"/>
<path d="M930 339 c0 -5 5 -7 10 -4 6 3 10 8 10 11 0 2 -4 4 -10 4 -5 0 -10
-5 -10 -11z"/>
<path d="M4165 341 c-3 -5 -1 -12 5 -16 5 -3 10 1 10 9 0 18 -6 21 -15 7z"/>
<path d="M446 331 c-8 -12 20 -22 42 -15 15 5 15 4 -1 -9 -18 -15 -18 -16 1
-26 15 -8 21 -7 25 3 4 9 14 12 28 9 18 -5 21 -3 16 11 -4 10 -7 21 -8 24 0 4
-4 -1 -8 -12 -7 -17 -8 -18 -24 -1 -10 9 -24 14 -32 11 -8 -3 -15 -1 -15 4 0
12 -17 13 -24 1z"/>
<path d="M677 333 c-15 -14 -6 -41 16 -46 21 -6 21 -5 3 8 -16 12 -17 17 -6
30 12 14 0 22 -13 8z"/>
<path d="M808 322 c-9 -31 0 -52 18 -45 9 3 11 9 5 17 -5 6 -11 20 -13 31 -3
18 -4 18 -10 -3z"/>
<path d="M1220 330 c0 -6 7 -10 15 -10 8 0 15 2 15 4 0 2 -7 6 -15 10 -8 3
-15 1 -15 -4z"/>
<path d="M4315 326 c11 -8 24 -12 28 -9 11 7 -12 23 -32 23 -11 0 -9 -4 4 -14z"/>
<path d="M4461 321 c-12 -21 -5 -32 15 -24 10 4 13 0 8 -13 -3 -11 1 -8 10 6
13 22 21 21 17 -2 0 -4 6 -5 14 -2 8 4 15 10 15 15 0 5 5 9 12 9 6 0 8 -3 5
-7 -4 -3 1 -12 11 -19 9 -7 13 -16 8 -21 -5 -4 -11 -3 -13 3 -4 12 -43 7 -43
-5 0 -4 6 -13 13 -20 10 -11 7 -12 -14 -8 -17 5 -26 2 -26 -6 0 -11 13 -13 60
-8 5 1 5 6 2 11 -3 6 3 10 15 10 12 0 18 5 15 10 -3 6 -1 10 5 10 6 0 9 4 5 9
-3 6 2 14 11 19 12 7 13 11 5 16 -7 4 -19 2 -28 -6 -15 -11 -16 -11 -10 5 5
12 3 16 -5 11 -8 -5 -9 -2 -5 9 3 10 2 17 -2 17 -5 0 -11 -5 -13 -12 -3 -7
-21 -13 -42 -14 -27 0 -36 3 -32 13 8 20 -2 16 -13 -6z"/>
<path d="M4625 317 c11 -16 12 -24 2 -36 -7 -9 -2 -8 11 3 12 11 22 25 22 32
0 8 6 11 17 7 10 -4 14 -2 10 4 -4 6 -23 11 -42 11 -33 0 -34 -1 -20 -21z"/>
<path d="M575 320 c-3 -5 -1 -10 4 -10 6 0 11 5 11 10 0 6 -2 10 -4 10 -3 0
-8 -4 -11 -10z"/>
<path d="M881 314 c0 -11 3 -14 6 -6 3 7 2 16 -1 19 -3 4 -6 -2 -5 -13z"/>
<path d="M4227 324 c7 -3 9 -13 6 -22 -6 -15 -5 -15 11 -3 13 11 14 16 4 22
-7 5 -17 8 -23 8 -5 0 -5 -3 2 -5z"/>
<path d="M630 310 c0 -6 -6 -10 -12 -9 -25 3 -39 -1 -34 -10 8 -12 54 -1 60
15 3 8 1 14 -4 14 -6 0 -10 -5 -10 -10z"/>
<path d="M765 290 c-10 -11 -24 -20 -32 -20 -8 0 -11 -4 -8 -10 10 -15 35 -12
35 5 0 8 4 15 9 15 5 0 11 7 15 15 7 20 3 19 -19 -5z"/>
<path d="M4357 290 c-5 -21 13 -21 34 1 15 15 15 17 -6 17 -14 0 -25 -8 -28
-18z"/>
<path d="M863 275 c0 -8 4 -12 9 -9 5 3 6 10 3 15 -9 13 -12 11 -12 -6z"/>
<path d="M920 284 c0 -13 18 -39 24 -34 2 3 -2 14 -10 24 -8 11 -14 16 -14 10z"/>
<path d="M4415 280 c-16 -6 -13 -8 13 -7 17 0 32 1 32 2 0 8 -28 11 -45 5z"/>
<path d="M640 267 c0 -5 10 -5 21 -2 16 5 19 4 14 -5 -5 -9 -4 -11 4 -6 6 4 9
11 6 16 -7 11 -45 9 -45 -3z"/>
<path d="M1068 273 c7 -3 16 -2 19 1 4 3 -2 6 -13 5 -11 0 -14 -3 -6 -6z"/>
<path d="M4250 271 c0 -5 7 -14 15 -21 16 -14 18 -10 9 14 -6 17 -24 22 -24 7z"/>
<path d="M568 257 c-15 -12 -15 -14 3 -25 11 -7 19 -8 19 -2 0 5 -5 10 -11 10
-8 0 -8 5 1 15 15 18 11 19 -12 2z"/>
<path d="M4490 260 c-9 -6 -10 -10 -3 -10 6 0 15 5 18 10 8 12 4 12 -15 0z"/>
<path d="M880 256 c0 -2 7 -6 15 -10 8 -3 15 -1 15 4 0 6 -7 10 -15 10 -8 0
-15 -2 -15 -4z"/>
<path d="M608 243 c7 -3 16 -2 19 1 4 3 -2 6 -13 5 -11 0 -14 -3 -6 -6z"/>
<path d="M643 245 c4 -5 -7 -17 -25 -26 -27 -15 -29 -17 -10 -16 12 1 22 5 22
10 0 5 7 7 15 3 18 -7 21 20 3 30 -7 4 -9 3 -5 -1z"/>
<path d="M4029 233 c-13 -16 -12 -17 4 -4 9 7 17 15 17 17 0 8 -8 3 -21 -13z"/>
<path d="M688 233 c7 -3 16 -2 19 1 4 3 -2 6 -13 5 -11 0 -14 -3 -6 -6z"/>
<path d="M847 221 c5 -20 33 -19 33 2 0 6 -3 7 -7 4 -3 -4 -12 -2 -19 4 -9 8
-11 5 -7 -10z"/>
<path d="M940 236 c0 -2 7 -6 15 -10 8 -3 15 -1 15 4 0 6 -7 10 -15 10 -8 0
-15 -2 -15 -4z"/>
<path d="M1150 230 c-9 -6 -10 -10 -3 -10 6 0 15 5 18 10 8 12 4 12 -15 0z"/>
<path d="M3728 233 c7 -3 16 -2 19 1 4 3 -2 6 -13 5 -11 0 -14 -3 -6 -6z"/>
<path d="M4069 238 c-7 -25 -7 -48 0 -43 6 3 9 14 8 25 -1 17 -5 26 -8 18z"/>
<path d="M4380 229 c-24 -7 -24 -7 5 -9 25 -1 27 -3 11 -9 -19 -7 -19 -8 1
-13 18 -5 33 7 33 27 0 8 -28 11 -50 4z"/>
<path d="M4457 234 c-8 -8 1 -24 14 -24 5 0 9 7 9 15 0 15 -12 20 -23 9z"/>
<path d="M1036 213 c-7 -18 1 -33 17 -32 9 0 9 2 0 6 -19 7 -16 21 5 25 15 3
16 4 0 10 -10 4 -19 1 -22 -9z"/>
<path d="M1328 223 c7 -3 16 -2 19 1 4 3 -2 6 -13 5 -11 0 -14 -3 -6 -6z"/>
<path d="M4170 221 c0 -6 4 -13 10 -16 6 -3 7 1 4 9 -7 18 -14 21 -14 7z"/>
<path d="M718 213 c7 -3 16 -2 19 1 4 3 -2 6 -13 5 -11 0 -14 -3 -6 -6z"/>
<path d="M1436 211 c-3 -4 6 -6 19 -3 14 2 25 6 25 8 0 8 -39 4 -44 -5z"/>
<path d="M4255 210 c-7 -11 -2 -12 57 -15 20 -1 35 2 32 6 -2 5 -11 6 -19 2
-8 -3 -15 0 -15 6 0 14 -47 15 -55 1z"/>
<path d="M670 200 c0 -5 -8 -7 -17 -4 -17 5 -17 5 -1 -9 10 -8 15 -17 11 -20
-3 -4 -2 -7 3 -8 28 -2 45 -9 60 -23 21 -22 24 -20 11 8 -7 14 -14 24 -17 23
-18 -4 -48 16 -43 29 3 7 2 14 -1 14 -3 0 -6 -4 -6 -10z"/>
<path d="M697 199 c7 -7 15 -10 18 -7 3 3 -2 9 -12 12 -14 6 -15 5 -6 -5z"/>
<path d="M3985 200 c-3 -6 1 -7 9 -4 18 7 21 14 7 14 -6 0 -13 -4 -16 -10z"/>
<path d="M4100 190 l-25 -20 33 12 c17 7 32 16 32 20 0 13 -13 9 -40 -12z"/>
<path d="M837 188 c6 -11 31 -10 37 1 3 5 -5 8 -18 7 -13 0 -22 -4 -19 -8z"/>
<path d="M960 189 c0 -5 5 -7 10 -4 6 3 10 8 10 11 0 2 -4 4 -10 4 -5 0 -10
-5 -10 -11z"/>
<path d="M1210 190 c0 -5 5 -10 11 -10 5 0 7 5 4 10 -3 6 -8 10 -11 10 -2 0
-4 -4 -4 -10z"/>
<path d="M1388 193 c7 -3 16 -2 19 1 4 3 -2 6 -13 5 -11 0 -14 -3 -6 -6z"/>
<path d="M4196 185 c-3 -8 -13 -15 -23 -15 -15 0 -15 -1 2 -13 10 -8 15 -19
11 -25 -4 -7 -1 -12 6 -12 9 0 9 -3 2 -8 -13 -8 -15 -44 -2 -36 5 3 6 9 3 14
-3 5 3 13 12 19 10 6 13 11 6 11 -6 0 -10 9 -8 20 2 11 -2 20 -8 20 -7 0 -4 7
6 14 10 8 14 17 9 20 -6 3 -12 -1 -16 -9z"/>
<path d="M4357 179 c-4 -16 -3 -18 9 -8 7 6 11 15 8 20 -8 13 -11 11 -17 -12z"/>
<path d="M4427 182 c-20 -21 -22 -32 -6 -32 5 0 7 4 4 10 -3 5 9 16 27 24 26
11 28 15 12 15 -11 1 -28 -7 -37 -17z"/>
<path d="M787 184 c19 -8 4 -32 -18 -27 -10 3 -19 1 -19 -4 0 -15 40 -8 51 8
13 21 11 29 -8 28 -10 0 -13 -3 -6 -5z"/>
<path d="M1000 170 c-8 -5 -10 -10 -5 -10 6 0 17 5 25 10 8 5 11 10 5 10 -5 0
-17 -5 -25 -10z"/>
<path d="M4265 169 l-30 -7 30 -1 c21 -1 26 -4 16 -10 -9 -6 -3 -8 20 -6 18 1
35 9 37 16 3 11 2 12 -6 1 -7 -11 -11 -11 -23 0 -9 9 -24 11 -44 7z"/>
<path d="M821 163 c0 -5 4 -17 9 -28 7 -17 9 -17 9 -2 1 9 7 17 14 17 8 0 7 4
-3 10 -18 12 -30 13 -29 3z"/>
<path d="M4000 150 c0 -5 5 -10 11 -10 5 0 7 5 4 10 -3 6 -8 10 -11 10 -2 0
-4 -4 -4 -10z"/>
<path d="M4116 147 c3 -10 9 -15 12 -12 3 3 0 11 -7 18 -10 9 -11 8 -5 -6z"/>
<path d="M958 143 c-10 -2 -18 -9 -18 -14 0 -6 7 -6 18 -1 9 5 24 12 32 15 13
5 13 5 0 5 -8 0 -23 -2 -32 -5z"/>
<path d="M4235 140 c3 -5 11 -10 16 -10 6 0 7 5 4 10 -3 6 -11 10 -16 10 -6 0
-7 -4 -4 -10z"/>
<path d="M4347 143 c-11 -17 10 -26 30 -13 16 10 16 11 1 6 -9 -3 -18 0 -21 7
-2 8 -5 8 -10 0z"/>
<path d="M1328 133 c6 -2 18 -2 25 0 6 3 1 5 -13 5 -14 0 -19 -2 -12 -5z"/>
<path d="M1398 133 c7 -3 16 -2 19 1 4 3 -2 6 -13 5 -11 0 -14 -3 -6 -6z"/>
<path d="M3486 132 c-2 -4 4 -8 14 -8 10 0 16 4 14 8 -3 4 -9 8 -14 8 -5 0
-11 -4 -14 -8z"/>
<path d="M3588 133 c7 -3 16 -2 19 1 4 3 -2 6 -13 5 -11 0 -14 -3 -6 -6z"/>
<path d="M4300 120 c0 -13 -7 -20 -20 -20 -11 0 -20 5 -20 11 0 6 -7 3 -16 -5
-8 -9 -20 -14 -25 -11 -5 4 -9 0 -9 -7 0 -8 9 -14 19 -14 11 0 18 3 15 7 -2 4
19 9 46 13 54 7 61 14 30 34 -18 11 -20 10 -20 -8z"/>
<path d="M768 118 c7 -7 22 -13 35 -15 62 -7 89 -16 76 -24 -10 -6 -7 -8 8 -6
46 3 -12 33 -79 41 -3 1 -10 4 -14 9 -4 4 -14 7 -23 7 -12 0 -12 -3 -3 -12z"/>
<path d="M1057 115 c-4 -8 -13 -15 -22 -15 -8 0 -15 -4 -15 -10 0 -18 25 -11
38 11 7 12 11 23 9 25 -3 3 -7 -2 -10 -11z"/>
<path d="M1094 121 c3 -5 15 -7 26 -4 28 7 25 13 -6 13 -14 0 -23 -4 -20 -9z"/>
<path d="M3970 122 c0 -12 19 -26 26 -19 2 2 -2 10 -11 17 -9 8 -15 8 -15 2z"/>
<path d="M3905 101 c3 -5 -3 -12 -12 -14 -11 -3 -6 -5 11 -6 24 -1 27 1 16 14
-14 16 -25 21 -15 6z"/>
<path d="M3955 90 c3 -5 8 -10 11 -10 2 0 4 5 4 10 0 6 -5 10 -11 10 -5 0 -7
-4 -4 -10z"/>
<path d="M4006 91 c-4 -5 3 -7 14 -4 23 6 26 13 6 13 -8 0 -17 -4 -20 -9z"/>
<path d="M4103 85 c0 -8 4 -15 9 -15 5 0 6 -6 2 -12 -4 -7 5 -2 18 12 27 26
29 42 3 20 -10 -8 -15 -9 -15 -1 0 6 -4 11 -8 11 -5 0 -9 -7 -9 -15z"/>
<path d="M930 83 c5 -2 8 -9 4 -14 -3 -5 0 -9 6 -9 15 0 7 23 -8 26 -7 1 -8 0
-2 -3z"/>
<path d="M1266 75 c-3 -10 1 -15 13 -15 10 0 18 7 18 15 0 8 -6 15 -13 15 -6
0 -14 -7 -18 -15z"/>
<path d="M1380 80 c0 -5 5 -10 11 -10 5 0 7 5 4 10 -3 6 -8 10 -11 10 -2 0 -4
-4 -4 -10z"/>
<path d="M970 68 c0 -4 4 -8 9 -8 6 0 12 4 15 8 3 5 -1 9 -9 9 -8 0 -15 -4
-15 -9z"/>
<path d="M3637 67 c-4 -10 3 -12 27 -9 27 4 28 6 11 13 -29 11 -32 11 -38 -4z"/>
<path d="M1060 59 c0 -5 5 -7 10 -4 6 3 10 8 10 11 0 2 -4 4 -10 4 -5 0 -10
-5 -10 -11z"/>
<path d="M1140 60 l-25 -8 28 -1 c15 -1 27 4 27 9 0 6 -1 10 -2 9 -2 -1 -14
-5 -28 -9z"/>
<path d="M1415 60 c-3 -6 1 -7 9 -4 18 7 21 14 7 14 -6 0 -13 -4 -16 -10z"/>
<path d="M1490 59 c0 -5 5 -7 10 -4 6 3 10 8 10 11 0 2 -4 4 -10 4 -5 0 -10
-5 -10 -11z"/>
<path d="M3714 51 c0 -9 8 -17 18 -17 10 0 18 4 18 8 0 4 -8 12 -18 17 -14 7
-18 6 -18 -8z"/>
<path d="M4015 61 c-3 -5 -2 -12 3 -15 5 -3 9 1 9 9 0 17 -3 19 -12 6z"/>
<path d="M1085 50 c-3 -6 1 -7 9 -4 18 7 21 14 7 14 -6 0 -13 -4 -16 -10z"/>
<path d="M1326 51 c-12 -5 -15 -10 -9 -14 6 -4 16 0 23 8 14 17 13 17 -14 6z"/>
<path d="M1365 51 c-3 -5 1 -12 7 -14 7 -3 4 -6 -6 -6 -15 -1 -17 -4 -9 -12 9
-9 15 -8 26 2 11 12 12 17 1 27 -7 6 -15 8 -19 3z"/>
<path d="M4040 56 c0 -2 7 -7 16 -10 8 -3 12 -2 9 4 -6 10 -25 14 -25 6z"/>
<path d="M1196 39 c4 -8 -3 -10 -22 -7 -16 3 -23 3 -16 1 7 -3 10 -8 8 -11 -2
-4 14 -7 37 -7 25 0 41 5 43 13 1 7 0 8 -3 2 -6 -12 -33 -13 -33 -1 0 5 6 12
13 14 6 3 2 6 -11 6 -15 1 -21 -3 -16 -10z"/>
<path d="M1270 40 c8 -5 20 -10 25 -10 6 0 3 5 -5 10 -8 5 -19 10 -25 10 -5 0
-3 -5 5 -10z"/>
<path d="M1440 43 c0 -13 42 -35 49 -26 3 4 4 7 2 5 -2 -1 -15 5 -28 13 -13 9
-23 12 -23 8z"/>
<path d="M1630 42 c0 -16 32 -24 44 -11 8 9 8 10 -2 5 -7 -4 -19 -2 -27 4 -9
7 -15 8 -15 2z"/>
<path d="M1730 40 c-9 -6 -10 -10 -3 -10 6 0 15 5 18 10 8 12 4 12 -15 0z"/>
<path d="M3365 40 c-3 -5 -1 -10 4 -10 6 0 11 5 11 10 0 6 -2 10 -4 10 -3 0
-8 -4 -11 -10z"/>
<path d="M3768 38 c5 -5 16 -8 23 -6 8 3 3 7 -10 11 -17 4 -21 3 -13 -5z"/>
<path d="M3860 40 c8 -5 20 -10 25 -10 6 0 3 5 -5 10 -8 5 -19 10 -25 10 -5 0
-3 -5 5 -10z"/>
<path d="M2330 36 c0 -2 7 -6 15 -10 8 -3 15 -1 15 4 0 6 -7 10 -15 10 -8 0
-15 -2 -15 -4z"/>
<path d="M3545 29 c-4 -6 -5 -12 -2 -15 2 -3 7 2 10 11 7 17 1 20 -8 4z"/>
<path d="M3925 29 c-4 -6 -5 -12 -2 -15 2 -3 7 2 10 11 7 17 1 20 -8 4z"/>
<path d="M1120 20 c0 -5 5 -10 11 -10 5 0 7 5 4 10 -3 6 -8 10 -11 10 -2 0 -4
-4 -4 -10z"/>
<path d="M1556 18 c3 -4 12 -8 20 -8 8 0 14 4 14 8 0 4 -9 8 -19 8 -11 0 -17
-4 -15 -8z"/>
<path d="M1873 15 c0 -8 4 -12 9 -9 5 3 6 10 3 15 -9 13 -12 11 -12 -6z"/>
<path d="M3980 19 c0 -5 5 -7 10 -4 6 3 10 8 10 11 0 2 -4 4 -10 4 -5 0 -10
-5 -10 -11z"/>
<path d="M1305 10 c-3 -5 -1 -10 4 -10 6 0 11 5 11 10 0 6 -2 10 -4 10 -3 0
-8 -4 -11 -10z"/>
<path d="M2517 9 c7 -7 15 -10 18 -7 3 3 -2 9 -12 12 -14 6 -15 5 -6 -5z"/>
<path d="M2950 16 c0 -2 9 -6 20 -9 11 -3 18 -1 14 4 -5 9 -34 13 -34 5z"/>
<path d="M3680 16 c0 -2 7 -7 16 -10 8 -3 12 -2 9 4 -6 10 -25 14 -25 6z"/>
</g>
</svg>
